<svg width="16" height="26" viewBox="0 0 16 26" fill="none" xmlns="http://www.w3.org/2000/svg">
<path d="M14.6288 1.07876C14.9803 1.43037 15.1777 1.9072 15.1777 2.40438C15.1777 2.90157 14.9803 3.3784 14.6288 3.73001L5.34751 13.0113L14.6288 22.2925C14.9703 22.6461 15.1593 23.1198 15.155 23.6114C15.1508 24.103 14.9536 24.5733 14.6059 24.9209C14.2583 25.2686 13.788 25.4658 13.2964 25.47C12.8048 25.4743 12.3311 25.2853 11.9775 24.9438L1.37063 14.3369C1.01913 13.9853 0.821659 13.5084 0.821659 13.0113C0.821659 12.5141 1.01913 12.0372 1.37063 11.6856L11.9775 1.07876C12.3291 0.727252 12.806 0.529785 13.3031 0.529785C13.8003 0.529785 14.2771 0.727252 14.6288 1.07876V1.07876Z" fill="black"/>
</svg>
