<svg width="16" height="26" viewBox="0 0 16 26" fill="none" xmlns="http://www.w3.org/2000/svg">
<path d="M1.37063 1.07876C1.01912 1.43037 0.821655 1.9072 0.821655 2.40438C0.821655 2.90157 1.01912 3.3784 1.37063 3.73001L10.6519 13.0113L1.37063 22.2925C1.02908 22.6461 0.840094 23.1198 0.844366 23.6114C0.848638 24.103 1.04583 24.5733 1.39347 24.9209C1.74111 25.2686 2.21138 25.4658 2.703 25.47C3.19462 25.4743 3.66825 25.2853 4.02188 24.9438L14.6288 14.3369C14.9803 13.9853 15.1777 13.5084 15.1777 13.0113C15.1777 12.5141 14.9803 12.0372 14.6288 11.6856L4.02188 1.07876C3.67026 0.727252 3.19344 0.529785 2.69625 0.529785C2.19907 0.529785 1.72224 0.727252 1.37063 1.07876V1.07876Z" fill="black"/>
</svg>
