<svg width="1200" height="300" viewBox="0 0 1200 300" fill="none" xmlns="http://www.w3.org/2000/svg">
<path d="M0 20C0 8.9543 8.95431 0 20 0H1180C1191.05 0 1200 8.95431 1200 20V280C1200 291.046 1191.05 300 1180 300H20C8.95429 300 0 291.046 0 280V20Z" fill="#181818"/>
<mask id="mask0_440_411" style="mask-type:alpha" maskUnits="userSpaceOnUse" x="0" y="0" width="1200" height="300">
<path d="M0 20C0 8.9543 8.95431 0 20 0H1180C1191.05 0 1200 8.95431 1200 20V280C1200 291.046 1191.05 300 1180 300H20C8.95429 300 0 291.046 0 280V20Z" fill="#181818"/>
</mask>
<g mask="url(#mask0_440_411)">
<g opacity="0.51">
<path d="M1196.95 4.2959C1196.96 4.27512 1196.96 4.25857 1196.96 4.23779C1196.92 2.09352 1196.88 -0.0590539 1196.84 -2.20333C1196.83 -2.81598 1196.45 -3.33161 1196.01 -3.31984C1194.5 -3.27867 1192.98 -3.23732 1191.47 -3.19614C1191.46 -3.19583 1191.44 -3.19129 1191.43 -3.18676C1191.01 -3.14235 1190.68 -2.632 1190.69 -2.03591C1190.73 0.108369 1190.77 2.26091 1190.81 4.40519C1190.82 5.01784 1191.2 5.53347 1191.63 5.5217C1193.15 5.48053 1194.66 5.4392 1196.18 5.39803C1196.41 5.39167 1196.59 5.26254 1196.71 5.07691C1196.72 5.06425 1196.73 5.05582 1196.74 5.04316C1196.74 5.03472 1196.75 5.02206 1196.76 5.01362C1196.88 4.84471 1196.95 4.60239 1196.95 4.2959ZM1192.4 3.22302C1192.37 1.83214 1192.34 0.449545 1192.32 -0.941338C1192.57 -0.948175 1192.83 -0.95517 1193.08 -0.962006C1193.8 -0.98172 1194.53 -1.00161 1195.26 -1.02132C1195.27 0.00528495 1195.29 1.04019 1195.31 2.06679C1195.32 2.4228 1195.33 2.78706 1195.33 3.14306C1194.35 3.16977 1193.37 3.19647 1192.4 3.22302Z" fill="url(#paint0_linear_440_411)"/>
<path d="M1174.24 4.97694C1174.2 2.83267 1174.16 0.680108 1174.12 -1.46417C1174.11 -2.07682 1173.73 -2.59245 1173.3 -2.58068C1171.78 -2.53951 1170.26 -2.49817 1168.75 -2.45699C1168.32 -2.44523 1167.96 -1.90941 1167.97 -1.29676C1168.01 0.847518 1168.05 3.00007 1168.09 5.14435C1168.1 5.757 1168.48 6.27263 1168.91 6.26087C1170.43 6.21969 1171.95 6.17835 1173.46 6.13718C1173.69 6.13082 1173.87 6.00171 1174 5.81607C1174.01 5.80341 1174.01 5.79498 1174.02 5.78232C1174.03 5.77388 1174.03 5.76122 1174.04 5.75279C1174.17 5.57121 1174.25 5.31639 1174.24 4.97694ZM1169.68 3.96219C1169.65 2.57131 1169.63 1.18871 1169.6 -0.202176C1170.58 -0.228885 1171.56 -0.255449 1172.54 -0.282158C1172.56 1.10873 1172.59 2.49134 1172.62 3.88223C1171.63 3.90893 1170.65 3.93564 1169.68 3.96219Z" fill="url(#paint1_linear_440_411)"/>
<path d="M1197.48 36.4348C1197.44 34.2905 1197.4 32.1379 1197.36 29.9936C1197.34 29.381 1196.96 28.8654 1196.53 28.8771C1195.02 28.9183 1193.5 28.9597 1191.99 29.0008C1191.55 29.0126 1191.19 29.5484 1191.2 30.1611C1191.25 32.3053 1191.29 34.4579 1191.33 36.6022C1191.34 37.2148 1191.72 37.7304 1192.15 37.7187C1193.66 37.6775 1195.18 37.6362 1196.7 37.595C1196.93 37.5886 1197.11 37.4595 1197.23 37.2739C1197.24 37.2612 1197.25 37.2528 1197.26 37.2401C1197.26 37.2317 1197.27 37.219 1197.28 37.2106C1197.4 37.029 1197.48 36.7742 1197.48 36.4348ZM1192.91 35.42C1192.89 34.0291 1192.86 32.6465 1192.84 31.2556C1193.82 31.2289 1194.79 31.2024 1195.77 31.1757C1195.8 32.5665 1195.83 33.9492 1195.85 35.3401C1194.87 35.3668 1193.89 35.3935 1192.91 35.42Z" fill="url(#paint2_linear_440_411)"/>
<path d="M1151.52 5.71426C1151.48 3.56998 1151.44 1.41744 1151.4 -0.726837C1151.39 -1.29809 1151.06 -1.77375 1150.67 -1.83355C1150.64 -1.83682 1150.61 -1.8443 1150.58 -1.84335C1149.06 -1.80217 1147.54 -1.76085 1146.03 -1.71967C1145.6 -1.70791 1145.24 -1.17209 1145.25 -0.55944C1145.29 1.58484 1145.33 3.73741 1145.37 5.88169C1145.37 5.93136 1145.38 5.9726 1145.38 6.01806C1145.44 6.56727 1145.79 7.00917 1146.19 6.9982C1147.71 6.95702 1149.23 6.91567 1150.74 6.87449C1150.97 6.86814 1151.15 6.73902 1151.28 6.55339C1151.28 6.54073 1151.29 6.53231 1151.3 6.51965C1151.3 6.51122 1151.31 6.49856 1151.32 6.49012C1151.44 6.30448 1151.52 6.04964 1151.52 5.71426ZM1146.95 4.70374C1146.95 4.37257 1146.94 4.0414 1146.94 3.71024C1146.92 2.65052 1146.9 1.5908 1146.88 0.539355C1147.62 0.519004 1148.37 0.498655 1149.11 0.478464C1149.35 0.472105 1149.58 0.465758 1149.81 0.459399C1149.84 1.85028 1149.87 3.23287 1149.89 4.62376C1148.91 4.64625 1147.93 4.67297 1146.95 4.70374Z" fill="url(#paint3_linear_440_411)"/>
<path d="M1174.76 37.1725C1174.72 35.0282 1174.68 32.8757 1174.64 30.7314C1174.63 30.1188 1174.25 29.6031 1173.81 29.6149C1172.3 29.6561 1170.78 29.6974 1169.27 29.7386C1168.84 29.7503 1168.48 30.2862 1168.49 30.8988C1168.53 33.0431 1168.57 35.1956 1168.61 37.3399C1168.62 37.9526 1169 38.4682 1169.43 38.4564C1170.95 38.4153 1172.47 38.3739 1173.98 38.3328C1174.21 38.3264 1174.39 38.1973 1174.52 38.0116C1174.52 37.999 1174.53 37.9906 1174.54 37.9779C1174.54 37.9695 1174.55 37.9568 1174.56 37.9484C1174.69 37.7668 1174.77 37.512 1174.76 37.1725ZM1170.19 36.162C1170.17 34.7711 1170.14 33.3885 1170.12 31.9976C1171.1 31.9709 1172.07 31.9443 1173.05 31.9176C1173.08 33.3085 1173.11 34.6911 1173.13 36.082C1172.15 36.1045 1171.17 36.1312 1170.19 36.162Z" fill="url(#paint4_linear_440_411)"/>
<path d="M1198 68.6309C1197.96 66.4866 1197.92 64.3341 1197.88 62.1898C1197.86 61.5772 1197.48 61.0616 1197.05 61.0733C1195.54 61.1145 1194.02 61.1558 1192.51 61.197C1192.07 61.2088 1191.71 61.7446 1191.72 62.3572C1191.76 64.5015 1191.81 66.6541 1191.85 68.7984C1191.86 69.411 1192.24 69.9266 1192.67 69.9149C1194.18 69.8737 1195.7 69.8323 1197.22 69.7912C1197.45 69.7848 1197.63 69.6557 1197.75 69.4701C1197.76 69.4574 1197.77 69.449 1197.78 69.4363C1197.78 69.4279 1197.79 69.4152 1197.8 69.4068C1197.92 69.2252 1198 68.9704 1198 68.6309ZM1193.43 67.6204C1193.4 66.2295 1193.38 64.8469 1193.35 63.456C1194.33 63.4293 1195.31 63.4028 1196.29 63.3761C1196.32 64.767 1196.34 66.1495 1196.37 67.5404C1195.39 67.5629 1194.41 67.5896 1193.43 67.6204Z" fill="url(#paint5_linear_440_411)"/>
<path d="M1152.04 37.9121C1152 35.7679 1151.96 33.6153 1151.92 31.471C1151.91 30.8584 1151.53 30.3428 1151.1 30.3545C1149.58 30.3957 1148.06 30.437 1146.55 30.4782C1146.12 30.49 1145.76 31.0258 1145.77 31.6384C1145.81 33.7827 1145.85 35.9353 1145.89 38.0796C1145.9 38.6922 1146.28 39.2078 1146.72 39.1961C1148.23 39.1549 1149.75 39.1136 1151.26 39.0724C1151.49 39.066 1151.67 38.9369 1151.8 38.7513C1151.81 38.7386 1151.81 38.7302 1151.82 38.7175C1151.83 38.7091 1151.83 38.6964 1151.84 38.688C1151.97 38.5064 1152.05 38.2516 1152.04 37.9121ZM1147.48 36.9016C1147.45 35.5107 1147.42 34.1281 1147.4 32.7372C1148.38 32.7105 1149.35 32.684 1150.34 32.6573C1150.36 34.0482 1150.39 35.4308 1150.41 36.8216C1149.44 36.8441 1148.45 36.8708 1147.48 36.9016Z" fill="url(#paint6_linear_440_411)"/>
<path d="M1175.28 69.37C1175.24 67.2257 1175.2 65.0731 1175.16 62.9289C1175.15 62.3162 1174.77 61.8006 1174.34 61.8123C1172.82 61.8535 1171.3 61.8949 1169.79 61.936C1169.36 61.9478 1169 62.4836 1169.01 63.0963C1169.05 65.2405 1169.09 67.3931 1169.13 69.5374C1169.14 70.15 1169.52 70.6657 1169.96 70.6539C1171.47 70.6127 1172.99 70.5714 1174.5 70.5302C1174.73 70.5238 1174.91 70.3947 1175.04 70.2091C1175.05 70.1964 1175.05 70.188 1175.06 70.1753C1175.07 70.1669 1175.07 70.1542 1175.08 70.1458C1175.21 69.9642 1175.29 69.7094 1175.28 69.37ZM1170.72 68.3594C1170.69 66.9685 1170.66 65.5859 1170.64 64.1951C1171.62 64.1683 1172.59 64.1418 1173.58 64.1151C1173.6 65.506 1173.63 66.8886 1173.65 68.2795C1172.68 68.3019 1171.69 68.3287 1170.72 68.3594Z" fill="url(#paint7_linear_440_411)"/>
<path d="M1198.52 100.829C1198.48 98.6847 1198.44 96.5321 1198.4 94.3879C1198.39 93.7752 1198.01 93.2596 1197.57 93.2714C1196.06 93.3125 1194.54 93.3538 1193.03 93.395C1192.6 93.4068 1192.23 93.9426 1192.25 94.5552C1192.29 96.6995 1192.33 98.8521 1192.37 100.996C1192.38 101.609 1192.76 102.125 1193.19 102.113C1194.7 102.072 1196.22 102.03 1197.74 101.989C1197.97 101.983 1198.15 101.854 1198.27 101.668C1198.28 101.655 1198.29 101.647 1198.3 101.634C1198.3 101.626 1198.31 101.613 1198.32 101.605C1198.44 101.423 1198.52 101.168 1198.52 100.829ZM1193.95 99.8184C1193.93 98.4276 1193.9 97.0449 1193.87 95.654C1194.86 95.6273 1195.83 95.6008 1196.81 95.5741C1196.84 96.965 1196.86 98.3476 1196.89 99.7384C1195.91 99.7609 1194.93 99.7877 1193.95 99.8184Z" fill="url(#paint8_linear_440_411)"/>
<path d="M1129.32 38.6501C1129.28 36.5058 1129.24 34.3533 1129.2 32.209C1129.19 31.6377 1128.86 31.1621 1128.47 31.1023C1128.44 31.099 1128.41 31.0915 1128.38 31.0925C1126.86 31.1336 1125.34 31.175 1123.83 31.2162C1123.4 31.2279 1123.04 31.7637 1123.05 32.3764C1123.09 34.5207 1123.13 36.6732 1123.17 38.8175C1123.17 38.8672 1123.18 38.9084 1123.18 38.9539C1123.24 39.5031 1123.59 39.945 1123.99 39.934C1125.51 39.8928 1127.03 39.8515 1128.54 39.8103C1128.77 39.804 1128.95 39.6749 1129.08 39.4892C1129.09 39.4766 1129.09 39.4681 1129.1 39.4555C1129.11 39.447 1129.11 39.4344 1129.12 39.4259C1129.24 39.2403 1129.32 38.9855 1129.32 38.6501ZM1124.76 37.6396C1124.75 37.3084 1124.74 36.9772 1124.74 36.6461C1124.72 35.5864 1124.7 34.5266 1124.68 33.4752C1125.42 33.4548 1126.17 33.4345 1126.91 33.4143C1127.15 33.4079 1127.38 33.4016 1127.62 33.3952C1127.64 34.7861 1127.67 36.1687 1127.69 37.5596C1126.72 37.5821 1125.73 37.6088 1124.76 37.6396Z" fill="url(#paint9_linear_440_411)"/>
<path d="M1152.56 70.1078C1152.52 67.9635 1152.48 65.8109 1152.44 63.6666C1152.43 63.054 1152.05 62.5383 1151.62 62.5501C1150.1 62.5913 1148.58 62.6326 1147.07 62.6738C1146.64 62.6856 1146.28 63.2214 1146.29 63.8341C1146.33 65.9783 1146.37 68.1309 1146.41 70.2751C1146.42 70.8878 1146.8 71.4034 1147.23 71.3917C1148.75 71.3505 1150.27 71.3092 1151.78 71.268C1152.01 71.2616 1152.19 71.1325 1152.32 70.9469C1152.33 70.9342 1152.33 70.9258 1152.34 70.9131C1152.35 70.9047 1152.35 70.892 1152.36 70.8836C1152.49 70.702 1152.57 70.4472 1152.56 70.1078ZM1148 69.0972C1147.97 67.7063 1147.94 66.3237 1147.92 64.9328C1148.9 64.9061 1149.87 64.8796 1150.86 64.8529C1150.88 66.2437 1150.91 67.6264 1150.93 69.0172C1149.96 69.0397 1148.97 69.0664 1148 69.0972Z" fill="url(#paint10_linear_440_411)"/>
<path d="M1175.8 101.567C1175.76 99.4231 1175.72 97.2706 1175.68 95.1263C1175.67 94.5136 1175.29 93.998 1174.86 94.0098C1173.34 94.051 1171.82 94.0923 1170.31 94.1335C1169.88 94.1452 1169.52 94.6811 1169.53 95.2937C1169.57 97.438 1169.61 99.5905 1169.65 101.735C1169.66 102.347 1170.04 102.863 1170.48 102.851C1171.99 102.81 1173.51 102.769 1175.02 102.728C1175.25 102.721 1175.43 102.592 1175.56 102.407C1175.57 102.394 1175.57 102.385 1175.58 102.373C1175.59 102.364 1175.59 102.352 1175.6 102.343C1175.73 102.162 1175.81 101.907 1175.8 101.567ZM1171.24 100.557C1171.21 99.166 1171.18 97.7834 1171.16 96.3925C1172.14 96.3658 1173.11 96.3392 1174.1 96.3125C1174.12 97.7034 1174.15 99.086 1174.17 100.477C1173.2 100.499 1172.21 100.526 1171.24 100.557Z" fill="url(#paint11_linear_440_411)"/>
<path d="M1199.04 133.026C1199 130.882 1198.96 128.73 1198.92 126.585C1198.91 125.973 1198.53 125.457 1198.09 125.469C1196.58 125.51 1195.06 125.551 1193.55 125.592C1193.12 125.604 1192.76 126.14 1192.77 126.753C1192.81 128.897 1192.85 131.05 1192.89 133.194C1192.9 133.806 1193.28 134.322 1193.71 134.31C1195.23 134.269 1196.75 134.228 1198.26 134.187C1198.49 134.18 1198.67 134.051 1198.8 133.866C1198.8 133.853 1198.81 133.844 1198.82 133.832C1198.82 133.823 1198.83 133.811 1198.84 133.802C1198.97 133.621 1199.05 133.366 1199.04 133.026ZM1194.47 132.016C1194.45 130.625 1194.42 129.242 1194.4 127.851C1195.38 127.825 1196.35 127.798 1197.33 127.771C1197.36 129.162 1197.39 130.545 1197.41 131.936C1196.43 131.958 1195.46 131.989 1194.47 132.016Z" fill="url(#paint12_linear_440_411)"/>
<path d="M1129.84 70.8474C1129.8 68.7031 1129.76 66.5505 1129.72 64.4063C1129.71 63.7936 1129.33 63.278 1128.9 63.2897C1127.39 63.3309 1125.87 63.3723 1124.35 63.4134C1123.92 63.4252 1123.56 63.961 1123.57 64.5737C1123.61 66.718 1123.65 68.8705 1123.69 71.0148C1123.7 71.6274 1124.09 72.1431 1124.52 72.1313C1126.03 72.0901 1127.55 72.0488 1129.06 72.0076C1129.3 72.0013 1129.48 71.8721 1129.6 71.6865C1129.61 71.6738 1129.61 71.6654 1129.62 71.6527C1129.63 71.6443 1129.64 71.6316 1129.64 71.6232C1129.77 71.4459 1129.85 71.1868 1129.84 70.8474ZM1125.28 69.8368C1125.25 68.4459 1125.23 67.0634 1125.2 65.6725C1126.18 65.6458 1127.16 65.6192 1128.14 65.5925C1128.16 66.9834 1128.19 68.366 1128.22 69.7569C1127.24 69.7794 1126.26 69.8061 1125.28 69.8368Z" fill="url(#paint13_linear_440_411)"/>
<path d="M1153.08 102.306C1153.04 100.162 1153 98.0089 1152.96 95.8646C1152.95 95.252 1152.57 94.7364 1152.14 94.7481C1150.62 94.7893 1149.11 94.8307 1147.59 94.8718C1147.16 94.8836 1146.8 95.4194 1146.81 96.0321C1146.85 98.1764 1146.89 100.329 1146.93 102.473C1146.94 103.086 1147.32 103.601 1147.76 103.59C1149.27 103.549 1150.79 103.507 1152.3 103.466C1152.53 103.46 1152.71 103.331 1152.84 103.145C1152.85 103.132 1152.85 103.124 1152.86 103.111C1152.87 103.103 1152.88 103.09 1152.88 103.082C1153.01 102.904 1153.09 102.645 1153.08 102.306ZM1148.52 101.295C1148.49 99.9043 1148.46 98.5218 1148.44 97.1309C1149.42 97.1042 1150.4 97.0776 1151.38 97.0509C1151.4 98.4418 1151.43 99.8244 1151.46 101.215C1150.48 101.238 1149.5 101.264 1148.52 101.295Z" fill="url(#paint14_linear_440_411)"/>
<path d="M1176.32 133.765C1176.28 131.621 1176.24 129.468 1176.2 127.324C1176.19 126.711 1175.81 126.195 1175.38 126.207C1173.86 126.248 1172.35 126.29 1170.83 126.331C1170.4 126.343 1170.04 126.878 1170.05 127.491C1170.09 129.635 1170.13 131.788 1170.17 133.932C1170.18 134.545 1170.56 135.06 1171 135.049C1172.51 135.008 1174.03 134.966 1175.54 134.925C1175.78 134.919 1175.95 134.79 1176.08 134.604C1176.09 134.591 1176.09 134.583 1176.1 134.57C1176.11 134.562 1176.12 134.549 1176.12 134.541C1176.25 134.363 1176.33 134.104 1176.32 133.765ZM1171.76 132.754C1171.73 131.363 1171.7 129.981 1171.68 128.59C1172.66 128.563 1173.64 128.537 1174.62 128.51C1174.64 129.901 1174.67 131.283 1174.7 132.674C1173.72 132.697 1172.74 132.723 1171.76 132.754Z" fill="url(#paint15_linear_440_411)"/>
<path d="M1199.56 165.224C1199.52 163.08 1199.48 160.928 1199.44 158.783C1199.43 158.171 1199.05 157.655 1198.62 157.667C1197.1 157.708 1195.58 157.749 1194.07 157.79C1193.64 157.802 1193.28 158.338 1193.29 158.951C1193.33 161.095 1193.37 163.248 1193.41 165.392C1193.42 166.004 1193.8 166.52 1194.23 166.508C1195.75 166.467 1197.27 166.426 1198.78 166.385C1199.01 166.378 1199.19 166.249 1199.32 166.064C1199.33 166.051 1199.33 166.042 1199.34 166.03C1199.35 166.021 1199.35 166.009 1199.36 166C1199.48 165.823 1199.57 165.564 1199.56 165.224ZM1195 164.214C1194.97 162.823 1194.94 161.44 1194.92 160.05C1195.9 160.023 1196.87 159.996 1197.86 159.97C1197.88 161.36 1197.91 162.743 1197.93 164.134C1196.95 164.156 1195.98 164.187 1195 164.214Z" fill="url(#paint16_linear_440_411)"/>
<path d="M1107.13 71.5847C1107.09 69.4404 1107.05 67.2878 1107.01 65.1436C1106.99 64.5723 1106.67 64.0966 1106.28 64.0368C1106.24 64.0336 1106.22 64.0261 1106.18 64.0271C1104.67 64.0682 1103.15 64.1095 1101.64 64.1507C1101.2 64.1625 1100.84 64.6983 1100.85 65.311C1100.89 67.4552 1100.93 69.6078 1100.97 71.7521C1100.98 71.8018 1100.98 71.843 1100.99 71.8885C1101.05 72.4377 1101.4 72.8796 1101.8 72.8686C1103.31 72.8274 1104.83 72.7861 1106.34 72.7449C1106.58 72.7385 1106.76 72.6094 1106.88 72.4238C1106.89 72.4111 1106.9 72.4027 1106.9 72.3901C1106.91 72.3816 1106.92 72.369 1106.92 72.3605C1107.05 72.1791 1107.13 71.92 1107.13 71.5847ZM1102.56 70.5741C1102.55 70.243 1102.55 69.9118 1102.54 69.5806C1102.52 68.5209 1102.5 67.4612 1102.48 66.4098C1103.23 66.3894 1103.98 66.3691 1104.72 66.3489C1104.95 66.3425 1105.19 66.3362 1105.42 66.3298C1105.45 67.7207 1105.47 69.1033 1105.5 70.4942C1104.52 70.5209 1103.54 70.5434 1102.56 70.5741Z" fill="url(#paint17_linear_440_411)"/>
<path d="M1130.36 103.044C1130.32 100.899 1130.28 98.7467 1130.24 96.6024C1130.23 95.9898 1129.85 95.4742 1129.42 95.4859C1127.9 95.5271 1126.38 95.5684 1124.87 95.6096C1124.44 95.6214 1124.08 96.1572 1124.09 96.7698C1124.13 98.9141 1124.17 101.067 1124.21 103.211C1124.22 103.824 1124.6 104.339 1125.04 104.327C1126.55 104.286 1128.07 104.245 1129.58 104.204C1129.81 104.197 1129.99 104.068 1130.12 103.883C1130.13 103.87 1130.13 103.862 1130.14 103.849C1130.15 103.841 1130.15 103.828 1130.16 103.819C1130.29 103.642 1130.37 103.383 1130.36 103.044ZM1125.8 102.033C1125.77 100.642 1125.74 99.2595 1125.72 97.8686C1126.7 97.8419 1127.67 97.8154 1128.66 97.7887C1128.68 99.1796 1128.71 100.562 1128.73 101.953C1127.75 101.98 1126.77 102.002 1125.8 102.033Z" fill="url(#paint18_linear_440_411)"/>
<path d="M1153.6 134.502C1153.56 132.358 1153.52 130.205 1153.48 128.061C1153.47 127.448 1153.09 126.933 1152.66 126.944C1151.14 126.986 1149.62 127.027 1148.11 127.068C1147.68 127.08 1147.32 127.616 1147.33 128.228C1147.37 130.373 1147.41 132.525 1147.45 134.669C1147.46 135.282 1147.84 135.798 1148.28 135.786C1149.79 135.745 1151.31 135.703 1152.82 135.662C1153.05 135.656 1153.23 135.527 1153.36 135.341C1153.37 135.328 1153.37 135.32 1153.38 135.307C1153.39 135.299 1153.4 135.286 1153.4 135.278C1153.53 135.1 1153.61 134.841 1153.6 134.502ZM1149.04 133.491C1149.01 132.101 1148.98 130.718 1148.96 129.327C1149.94 129.3 1150.92 129.274 1151.9 129.247C1151.92 130.638 1151.95 132.021 1151.97 133.411C1150.99 133.438 1150.01 133.461 1149.04 133.491Z" fill="url(#paint19_linear_440_411)"/>
<path d="M1176.84 165.962C1176.8 163.818 1176.76 161.665 1176.72 159.521C1176.71 158.908 1176.33 158.393 1175.9 158.405C1174.38 158.446 1172.87 158.487 1171.35 158.528C1170.92 158.54 1170.56 159.076 1170.57 159.688C1170.61 161.833 1170.65 163.985 1170.69 166.13C1170.7 166.742 1171.08 167.258 1171.52 167.246C1173.03 167.205 1174.55 167.164 1176.06 167.122C1176.29 167.116 1176.47 166.987 1176.6 166.801C1176.61 166.789 1176.61 166.78 1176.62 166.768C1176.63 166.759 1176.64 166.746 1176.64 166.738C1176.77 166.561 1176.85 166.302 1176.84 165.962ZM1172.28 164.952C1172.25 163.561 1172.22 162.178 1172.2 160.787C1173.18 160.761 1174.16 160.734 1175.14 160.707C1175.16 162.098 1175.19 163.481 1175.21 164.872C1174.23 164.898 1173.26 164.925 1172.28 164.952Z" fill="url(#paint20_linear_440_411)"/>
<path d="M1200.08 197.42C1200.04 195.276 1200 193.123 1199.96 190.979C1199.95 190.366 1199.57 189.851 1199.14 189.862C1197.62 189.904 1196.1 189.945 1194.59 189.986C1194.16 189.998 1193.8 190.534 1193.81 191.146C1193.85 193.291 1193.89 195.443 1193.93 197.587C1193.94 198.2 1194.32 198.716 1194.75 198.704C1196.27 198.663 1197.79 198.621 1199.3 198.58C1199.53 198.574 1199.71 198.445 1199.84 198.259C1199.85 198.246 1199.85 198.238 1199.86 198.225C1199.87 198.217 1199.87 198.204 1199.88 198.196C1200 198.019 1200.09 197.759 1200.08 197.42ZM1195.51 196.409C1195.49 195.019 1195.46 193.636 1195.44 192.245C1196.42 192.218 1197.39 192.192 1198.37 192.165C1198.4 193.556 1198.43 194.939 1198.45 196.329C1197.47 196.356 1196.5 196.383 1195.51 196.409Z" fill="url(#paint21_linear_440_411)"/>
<path d="M1107.81 103.295C1107.77 101.151 1107.73 98.9985 1107.69 96.8543C1107.68 96.2416 1107.3 95.726 1106.86 95.7377C1105.35 95.7789 1103.83 95.8202 1102.32 95.8614C1101.89 95.8732 1101.53 96.409 1101.54 97.0216C1101.58 99.1659 1101.62 101.318 1101.66 103.463C1101.67 104.075 1102.05 104.591 1102.48 104.579C1104 104.538 1105.51 104.497 1107.03 104.456C1107.26 104.449 1107.44 104.32 1107.57 104.134C1107.57 104.122 1107.58 104.113 1107.59 104.101C1107.59 104.092 1107.6 104.08 1107.61 104.071C1107.73 103.894 1107.82 103.635 1107.81 103.295ZM1103.24 102.285C1103.22 100.894 1103.19 99.5113 1103.17 98.1204C1104.15 98.0937 1105.12 98.0672 1106.1 98.0405C1106.13 99.4314 1106.16 100.814 1106.18 102.205C1105.2 102.232 1104.22 102.254 1103.24 102.285Z" fill="url(#paint22_linear_440_411)"/>
<path d="M1130.88 135.241C1130.84 133.097 1130.8 130.944 1130.76 128.8C1130.75 128.187 1130.37 127.672 1129.94 127.683C1128.43 127.724 1126.91 127.766 1125.39 127.807C1124.96 127.819 1124.6 128.355 1124.61 128.967C1124.65 131.112 1124.69 133.264 1124.73 135.408C1124.74 136.021 1125.12 136.537 1125.56 136.525C1127.07 136.484 1128.59 136.442 1130.1 136.401C1130.34 136.395 1130.51 136.266 1130.64 136.08C1130.65 136.067 1130.65 136.059 1130.66 136.046C1130.67 136.038 1130.68 136.025 1130.68 136.017C1130.81 135.839 1130.89 135.58 1130.88 135.241ZM1126.32 134.23C1126.29 132.84 1126.27 131.457 1126.24 130.066C1127.22 130.039 1128.2 130.013 1129.18 129.986C1129.2 131.377 1129.23 132.76 1129.26 134.15C1128.27 134.177 1127.3 134.2 1126.32 134.23Z" fill="url(#paint23_linear_440_411)"/>
<path d="M1154.12 166.7C1154.08 164.556 1154.04 162.403 1154 160.259C1153.99 159.646 1153.61 159.131 1153.18 159.142C1151.67 159.184 1150.15 159.225 1148.63 159.266C1148.2 159.278 1147.84 159.814 1147.85 160.426C1147.89 162.571 1147.93 164.723 1147.97 166.867C1147.98 167.48 1148.37 167.996 1148.8 167.984C1150.31 167.943 1151.83 167.901 1153.34 167.86C1153.58 167.854 1153.75 167.725 1153.88 167.539C1153.89 167.526 1153.89 167.518 1153.9 167.505C1153.91 167.497 1153.92 167.484 1153.92 167.476C1154.05 167.298 1154.13 167.039 1154.12 166.7ZM1149.56 165.689C1149.53 164.299 1149.51 162.916 1149.48 161.525C1150.46 161.498 1151.44 161.472 1152.42 161.445C1152.44 162.836 1152.47 164.219 1152.5 165.609C1151.51 165.636 1150.54 165.659 1149.56 165.689Z" fill="url(#paint24_linear_440_411)"/>
<path d="M1177.36 198.16C1177.32 196.015 1177.28 193.863 1177.24 191.718C1177.23 191.106 1176.85 190.59 1176.42 190.602C1174.91 190.643 1173.39 190.684 1171.87 190.726C1171.44 190.737 1171.08 191.273 1171.09 191.886C1171.13 194.03 1171.17 196.183 1171.21 198.327C1171.22 198.94 1171.61 199.455 1172.04 199.444C1173.55 199.402 1175.07 199.361 1176.58 199.32C1176.82 199.313 1176.99 199.184 1177.12 198.999C1177.13 198.986 1177.13 198.978 1177.14 198.965C1177.15 198.957 1177.16 198.944 1177.16 198.935C1177.29 198.758 1177.37 198.499 1177.36 198.16ZM1172.8 197.149C1172.77 195.758 1172.75 194.376 1172.72 192.985C1173.7 192.958 1174.68 192.931 1175.66 192.905C1175.68 194.296 1175.71 195.678 1175.74 197.069C1174.76 197.096 1173.78 197.122 1172.8 197.149Z" fill="url(#paint25_linear_440_411)"/>
<path d="M1200.6 229.619C1200.56 227.474 1200.52 225.322 1200.48 223.178C1200.47 222.565 1200.09 222.049 1199.66 222.061C1198.14 222.102 1196.62 222.144 1195.11 222.185C1194.68 222.196 1194.32 222.732 1194.33 223.345C1194.37 225.489 1194.41 227.642 1194.45 229.786C1194.46 230.399 1194.84 230.914 1195.28 230.903C1196.79 230.861 1198.31 230.82 1199.82 230.779C1200.05 230.772 1200.23 230.643 1200.36 230.458C1200.37 230.445 1200.37 230.437 1200.38 230.424C1200.39 230.416 1200.4 230.403 1200.4 230.394C1200.53 230.217 1200.61 229.958 1200.6 229.619ZM1196.04 228.608C1196.01 227.217 1195.98 225.835 1195.96 224.444C1196.94 224.417 1197.92 224.39 1198.9 224.364C1198.92 225.755 1198.95 227.137 1198.97 228.528C1197.99 228.555 1197.02 228.581 1196.04 228.608Z" fill="url(#paint26_linear_440_411)"/>
<path d="M1084.93 104.525C1084.88 102.38 1084.84 100.228 1084.8 98.0836C1084.79 97.5124 1084.47 97.0367 1084.08 96.9769C1084.04 96.9737 1084.01 96.9662 1083.98 96.9671C1082.47 97.0083 1080.95 97.0497 1079.43 97.0908C1079 97.1026 1078.64 97.6384 1078.65 98.2511C1078.69 100.395 1078.73 102.548 1078.77 104.692C1078.77 104.742 1078.78 104.783 1078.79 104.829C1078.85 105.378 1079.2 105.82 1079.6 105.809C1081.11 105.767 1082.63 105.726 1084.14 105.685C1084.38 105.679 1084.56 105.55 1084.68 105.364C1084.69 105.351 1084.69 105.343 1084.7 105.33C1084.71 105.322 1084.72 105.309 1084.72 105.301C1084.85 105.115 1084.93 104.856 1084.93 104.525ZM1080.36 103.51C1080.36 103.179 1080.35 102.848 1080.34 102.517C1080.32 101.457 1080.3 100.397 1080.28 99.3456C1081.03 99.3253 1081.78 99.3049 1082.52 99.2847C1082.75 99.2784 1082.99 99.272 1083.22 99.2657C1083.25 100.657 1083.27 102.039 1083.3 103.43C1082.32 103.457 1081.34 103.479 1080.36 103.51Z" fill="url(#paint27_linear_440_411)"/>
<path d="M1108.16 135.983C1108.12 133.839 1108.08 131.686 1108.04 129.542C1108.03 128.929 1107.65 128.414 1107.22 128.425C1105.71 128.467 1104.19 128.508 1102.67 128.549C1102.24 128.561 1101.88 129.097 1101.89 129.709C1101.93 131.854 1101.97 134.006 1102.01 136.15C1102.03 136.763 1102.41 137.279 1102.84 137.267C1104.35 137.226 1105.87 137.184 1107.38 137.143C1107.62 137.137 1107.8 137.008 1107.92 136.822C1107.93 136.81 1107.93 136.801 1107.94 136.788C1107.95 136.78 1107.96 136.767 1107.96 136.759C1108.09 136.577 1108.17 136.318 1108.16 135.983ZM1103.6 134.968C1103.58 133.577 1103.55 132.195 1103.52 130.804C1104.5 130.777 1105.48 130.751 1106.46 130.724C1106.49 132.115 1106.51 133.497 1106.54 134.888C1105.56 134.915 1104.58 134.938 1103.6 134.968Z" fill="url(#paint28_linear_440_411)"/>
<path d="M1131.4 167.442C1131.36 165.298 1131.32 163.145 1131.28 161.001C1131.27 160.388 1130.89 159.873 1130.46 159.884C1128.94 159.926 1127.42 159.967 1125.91 160.008C1125.48 160.02 1125.12 160.556 1125.13 161.168C1125.17 163.313 1125.21 165.465 1125.25 167.609C1125.26 168.222 1125.64 168.738 1126.07 168.726C1127.59 168.685 1129.11 168.643 1130.62 168.602C1130.85 168.596 1131.03 168.467 1131.16 168.281C1131.17 168.269 1131.17 168.26 1131.18 168.247C1131.19 168.239 1131.19 168.226 1131.2 168.218C1131.33 168.036 1131.41 167.777 1131.4 167.442ZM1126.84 166.427C1126.81 165.036 1126.79 163.654 1126.76 162.263C1127.74 162.236 1128.72 162.21 1129.7 162.183C1129.72 163.574 1129.75 164.956 1129.78 166.347C1128.79 166.374 1127.82 166.397 1126.84 166.427Z" fill="url(#paint29_linear_440_411)"/>
<path d="M1154.64 198.902C1154.6 196.757 1154.56 194.605 1154.52 192.461C1154.51 191.848 1154.13 191.332 1153.7 191.344C1152.18 191.385 1150.66 191.427 1149.15 191.468C1148.72 191.48 1148.36 192.015 1148.37 192.628C1148.41 194.772 1148.45 196.925 1148.49 199.069C1148.5 199.682 1148.88 200.197 1149.31 200.186C1150.83 200.144 1152.35 200.103 1153.86 200.062C1154.09 200.056 1154.27 199.926 1154.4 199.741C1154.41 199.728 1154.41 199.72 1154.42 199.707C1154.43 199.699 1154.43 199.686 1154.44 199.678C1154.57 199.496 1154.65 199.237 1154.64 198.902ZM1150.08 197.887C1150.05 196.496 1150.03 195.113 1150 193.723C1150.98 193.696 1151.96 193.669 1152.94 193.643C1152.96 195.033 1152.99 196.416 1153.02 197.807C1152.04 197.834 1151.06 197.86 1150.08 197.887Z" fill="url(#paint30_linear_440_411)"/>
<path d="M1177.88 230.359C1177.84 228.215 1177.8 226.063 1177.76 223.918C1177.75 223.306 1177.37 222.79 1176.93 222.802C1175.42 222.843 1173.9 222.884 1172.39 222.926C1171.96 222.937 1171.6 223.473 1171.61 224.086C1171.65 226.23 1171.69 228.383 1171.73 230.527C1171.74 231.14 1172.12 231.655 1172.55 231.643C1174.07 231.602 1175.59 231.561 1177.1 231.52C1177.33 231.513 1177.51 231.384 1177.64 231.199C1177.64 231.186 1177.65 231.178 1177.66 231.165C1177.66 231.156 1177.67 231.144 1177.68 231.135C1177.81 230.954 1177.89 230.695 1177.88 230.359ZM1173.32 229.345C1173.29 227.954 1173.26 226.571 1173.24 225.18C1174.22 225.154 1175.2 225.127 1176.18 225.1C1176.2 226.491 1176.23 227.874 1176.25 229.265C1175.27 229.291 1174.3 229.318 1173.32 229.345Z" fill="url(#paint31_linear_440_411)"/>
<path d="M1201.12 261.819C1201.08 259.674 1201.04 257.522 1201 255.377C1200.99 254.765 1200.6 254.249 1200.17 254.261C1198.66 254.302 1197.14 254.343 1195.63 254.385C1195.2 254.396 1194.83 254.932 1194.85 255.545C1194.89 257.689 1194.93 259.842 1194.97 261.986C1194.98 262.599 1195.36 263.114 1195.79 263.102C1197.3 263.061 1198.82 263.02 1200.34 262.979C1200.57 262.972 1200.75 262.843 1200.87 262.658C1200.88 262.645 1200.89 262.637 1200.9 262.624C1200.9 262.615 1200.91 262.603 1200.92 262.594C1201.04 262.413 1201.13 262.154 1201.12 261.819ZM1196.55 260.804C1196.53 259.413 1196.5 258.03 1196.48 256.639C1197.46 256.613 1198.43 256.586 1199.41 256.559C1199.44 257.95 1199.47 259.333 1199.49 260.724C1198.51 260.751 1197.54 260.777 1196.55 260.804Z" fill="url(#paint32_linear_440_411)"/>
<path d="M1085.45 136.723C1085.41 134.578 1085.37 132.426 1085.33 130.282C1085.31 129.669 1084.93 129.153 1084.5 129.165C1082.99 129.206 1081.47 129.248 1079.96 129.289C1079.52 129.3 1079.16 129.836 1079.17 130.449C1079.21 132.593 1079.25 134.746 1079.29 136.89C1079.31 137.503 1079.69 138.018 1080.12 138.007C1081.63 137.965 1083.15 137.924 1084.66 137.883C1084.9 137.877 1085.08 137.747 1085.2 137.562C1085.21 137.549 1085.22 137.541 1085.22 137.528C1085.23 137.52 1085.24 137.507 1085.24 137.498C1085.37 137.317 1085.46 137.058 1085.45 136.723ZM1080.88 135.708C1080.86 134.317 1080.83 132.934 1080.8 131.544C1081.79 131.517 1082.76 131.49 1083.74 131.464C1083.77 132.854 1083.8 134.237 1083.82 135.628C1082.84 135.655 1081.86 135.677 1080.88 135.708Z" fill="url(#paint33_linear_440_411)"/>
<path d="M1108.68 168.18C1108.64 166.036 1108.6 163.884 1108.56 161.739C1108.55 161.127 1108.17 160.611 1107.74 160.623C1106.23 160.664 1104.71 160.705 1103.19 160.747C1102.76 160.758 1102.4 161.294 1102.41 161.907C1102.45 164.051 1102.49 166.204 1102.53 168.348C1102.54 168.961 1102.93 169.476 1103.36 169.464C1104.87 169.423 1106.39 169.382 1107.9 169.341C1108.14 169.334 1108.32 169.205 1108.44 169.02C1108.45 169.007 1108.45 168.999 1108.46 168.986C1108.47 168.977 1108.48 168.965 1108.48 168.956C1108.61 168.775 1108.69 168.516 1108.68 168.18ZM1104.12 167.166C1104.1 165.775 1104.07 164.392 1104.04 163.001C1105.02 162.975 1106 162.948 1106.98 162.921C1107.01 164.312 1107.03 165.695 1107.06 167.086C1106.08 167.112 1105.1 167.135 1104.12 167.166Z" fill="url(#paint34_linear_440_411)"/>
<path d="M1131.92 199.64C1131.88 197.496 1131.84 195.343 1131.8 193.199C1131.79 192.586 1131.41 192.071 1130.98 192.082C1129.46 192.124 1127.95 192.165 1126.43 192.206C1126 192.218 1125.64 192.754 1125.65 193.366C1125.69 195.511 1125.73 197.663 1125.77 199.807C1125.78 200.42 1126.16 200.936 1126.6 200.924C1128.11 200.883 1129.63 200.841 1131.14 200.8C1131.37 200.794 1131.55 200.665 1131.68 200.479C1131.69 200.467 1131.69 200.458 1131.7 200.445C1131.71 200.437 1131.72 200.424 1131.72 200.416C1131.85 200.234 1131.93 199.975 1131.92 199.64ZM1127.36 198.625C1127.33 197.234 1127.31 195.852 1127.28 194.461C1128.26 194.434 1129.24 194.408 1130.22 194.381C1130.25 195.772 1130.27 197.154 1130.3 198.545C1129.32 198.572 1128.34 198.595 1127.36 198.625Z" fill="url(#paint35_linear_440_411)"/>
<path d="M1155.16 231.1C1155.12 228.955 1155.08 226.803 1155.04 224.659C1155.03 224.046 1154.65 223.53 1154.22 223.542C1152.7 223.583 1151.19 223.625 1149.67 223.666C1149.24 223.678 1148.88 224.213 1148.89 224.826C1148.93 226.97 1148.97 229.123 1149.01 231.267C1149.02 231.88 1149.4 232.395 1149.84 232.384C1151.35 232.342 1152.87 232.301 1154.38 232.26C1154.61 232.254 1154.79 232.124 1154.92 231.939C1154.93 231.926 1154.93 231.918 1154.94 231.905C1154.95 231.897 1154.96 231.884 1154.96 231.876C1155.09 231.694 1155.17 231.435 1155.16 231.1ZM1150.6 230.085C1150.57 228.694 1150.55 227.311 1150.52 225.921C1151.5 225.894 1152.48 225.867 1153.46 225.841C1153.49 227.231 1153.51 228.614 1153.54 230.005C1152.56 230.032 1151.58 230.058 1150.6 230.085Z" fill="url(#paint36_linear_440_411)"/>
<path d="M1178.4 262.559C1178.36 260.414 1178.32 258.262 1178.28 256.118C1178.27 255.505 1177.89 254.989 1177.46 255.001C1175.94 255.042 1174.42 255.084 1172.91 255.125C1172.48 255.137 1172.12 255.672 1172.13 256.285C1172.17 258.429 1172.21 260.582 1172.25 262.726C1172.26 263.339 1172.64 263.854 1173.07 263.843C1174.59 263.801 1176.11 263.76 1177.62 263.719C1177.85 263.713 1178.03 263.583 1178.16 263.398C1178.17 263.385 1178.17 263.377 1178.18 263.364C1178.19 263.356 1178.19 263.343 1178.2 263.335C1178.33 263.153 1178.41 262.894 1178.4 262.559ZM1173.84 261.544C1173.81 260.153 1173.79 258.77 1173.76 257.38C1174.74 257.353 1175.72 257.326 1176.7 257.3C1176.72 258.69 1176.75 260.073 1176.78 261.464C1175.79 261.491 1174.82 261.517 1173.84 261.544Z" fill="url(#paint37_linear_440_411)"/>
<path d="M1201.64 294.017C1201.6 291.873 1201.56 289.72 1201.52 287.576C1201.51 286.963 1201.13 286.448 1200.69 286.459C1199.18 286.501 1197.66 286.542 1196.15 286.583C1195.72 286.595 1195.36 287.131 1195.37 287.743C1195.41 289.888 1195.45 292.04 1195.49 294.185C1195.5 294.797 1195.88 295.313 1196.31 295.301C1197.83 295.26 1199.34 295.219 1200.86 295.177C1201.09 295.171 1201.27 295.042 1201.4 294.856C1201.4 294.844 1201.41 294.835 1201.42 294.823C1201.42 294.814 1201.43 294.801 1201.44 294.793C1201.57 294.611 1201.65 294.352 1201.64 294.017ZM1197.08 293.002C1197.05 291.611 1197.02 290.229 1197 288.838C1197.98 288.811 1198.95 288.785 1199.94 288.758C1199.96 290.149 1199.99 291.532 1200.01 292.922C1199.03 292.949 1198.06 292.976 1197.08 293.002Z" fill="url(#paint38_linear_440_411)"/>
<path d="M1062.73 137.461C1062.69 135.316 1062.65 133.164 1062.6 131.019C1062.59 130.448 1062.27 129.973 1061.88 129.913C1061.84 129.909 1061.82 129.902 1061.78 129.903C1060.27 129.944 1058.75 129.985 1057.24 130.027C1056.8 130.038 1056.44 130.574 1056.45 131.187C1056.49 133.331 1056.53 135.484 1056.57 137.628C1056.58 137.678 1056.58 137.719 1056.59 137.764C1056.65 138.314 1057 138.755 1057.4 138.745C1058.91 138.703 1060.43 138.662 1061.94 138.621C1062.18 138.614 1062.36 138.485 1062.48 138.3C1062.49 138.287 1062.5 138.279 1062.5 138.266C1062.51 138.258 1062.52 138.245 1062.52 138.236C1062.65 138.051 1062.73 137.792 1062.73 137.461ZM1058.16 136.446C1058.16 136.115 1058.15 135.783 1058.14 135.452C1058.12 134.393 1058.1 133.333 1058.08 132.281C1058.83 132.261 1059.58 132.241 1060.32 132.221C1060.56 132.214 1060.79 132.208 1061.02 132.201C1061.05 133.592 1061.07 134.975 1061.1 136.366C1060.12 136.393 1059.14 136.415 1058.16 136.446Z" fill="url(#paint39_linear_440_411)"/>
<path d="M1085.97 168.918C1085.93 166.774 1085.88 164.621 1085.84 162.477C1085.83 161.864 1085.45 161.349 1085.02 161.361C1083.51 161.402 1081.99 161.443 1080.48 161.484C1080.04 161.496 1079.68 162.032 1079.69 162.645C1079.73 164.789 1079.77 166.941 1079.81 169.086C1079.83 169.698 1080.21 170.214 1080.64 170.202C1082.15 170.161 1083.67 170.12 1085.18 170.078C1085.42 170.072 1085.6 169.943 1085.72 169.757C1085.73 169.745 1085.74 169.736 1085.74 169.724C1085.75 169.715 1085.76 169.703 1085.76 169.694C1085.89 169.513 1085.97 169.253 1085.97 168.918ZM1081.4 167.903C1081.38 166.513 1081.35 165.13 1081.32 163.739C1082.31 163.712 1083.28 163.686 1084.26 163.659C1084.29 165.05 1084.31 166.433 1084.34 167.824C1083.36 167.85 1082.38 167.873 1081.4 167.903Z" fill="url(#paint40_linear_440_411)"/>
<path d="M1109.21 200.378C1109.17 198.234 1109.13 196.081 1109.08 193.937C1109.07 193.324 1108.69 192.808 1108.26 192.82C1106.75 192.861 1105.23 192.903 1103.72 192.944C1103.28 192.956 1102.92 193.491 1102.93 194.104C1102.97 196.248 1103.01 198.401 1103.05 200.545C1103.07 201.158 1103.45 201.674 1103.88 201.662C1105.39 201.621 1106.91 201.579 1108.42 201.538C1108.66 201.532 1108.84 201.403 1108.96 201.217C1108.97 201.204 1108.98 201.196 1108.98 201.183C1108.99 201.175 1109 201.162 1109 201.154C1109.13 200.972 1109.22 200.713 1109.21 200.378ZM1104.64 199.363C1104.62 197.972 1104.59 196.59 1104.56 195.199C1105.55 195.172 1106.52 195.145 1107.5 195.119C1107.53 196.51 1107.55 197.892 1107.58 199.283C1106.6 199.31 1105.62 199.332 1104.64 199.363Z" fill="url(#paint41_linear_440_411)"/>
<path d="M1132.44 231.837C1132.4 229.693 1132.36 227.54 1132.32 225.396C1132.31 224.783 1131.93 224.267 1131.5 224.279C1129.99 224.32 1128.47 224.362 1126.95 224.403C1126.52 224.415 1126.16 224.95 1126.17 225.563C1126.21 227.707 1126.25 229.86 1126.29 232.004C1126.3 232.617 1126.69 233.133 1127.12 233.121C1128.63 233.08 1130.15 233.038 1131.66 232.997C1131.9 232.991 1132.07 232.862 1132.2 232.676C1132.21 232.663 1132.21 232.655 1132.22 232.642C1132.23 232.634 1132.24 232.621 1132.24 232.613C1132.37 232.431 1132.45 232.172 1132.44 231.837ZM1127.88 230.822C1127.85 229.431 1127.83 228.049 1127.8 226.658C1128.78 226.631 1129.76 226.604 1130.74 226.578C1130.77 227.969 1130.79 229.351 1130.82 230.742C1129.84 230.769 1128.86 230.795 1127.88 230.822Z" fill="url(#paint42_linear_440_411)"/>
<path d="M1155.68 263.295C1155.64 261.151 1155.6 258.998 1155.56 256.854C1155.55 256.242 1155.17 255.726 1154.74 255.738C1153.22 255.779 1151.7 255.82 1150.19 255.861C1149.76 255.873 1149.4 256.409 1149.41 257.022C1149.45 259.166 1149.49 261.318 1149.53 263.463C1149.54 264.075 1149.92 264.591 1150.36 264.579C1151.87 264.538 1153.39 264.497 1154.9 264.456C1155.13 264.449 1155.31 264.32 1155.44 264.134C1155.45 264.122 1155.45 264.113 1155.46 264.101C1155.47 264.092 1155.48 264.08 1155.48 264.071C1155.61 263.89 1155.69 263.631 1155.68 263.295ZM1151.12 262.281C1151.09 260.89 1151.07 259.507 1151.04 258.116C1152.02 258.089 1153 258.063 1153.98 258.036C1154.01 259.427 1154.03 260.81 1154.06 262.201C1153.08 262.227 1152.1 262.254 1151.12 262.281Z" fill="url(#paint43_linear_440_411)"/>
<path d="M1178.92 294.754C1178.88 292.61 1178.84 290.457 1178.8 288.313C1178.79 287.701 1178.41 287.185 1177.98 287.197C1176.46 287.238 1174.94 287.279 1173.43 287.32C1173 287.332 1172.64 287.868 1172.65 288.481C1172.69 290.625 1172.73 292.777 1172.77 294.922C1172.78 295.534 1173.16 296.05 1173.59 296.038C1175.11 295.997 1176.63 295.956 1178.14 295.915C1178.37 295.908 1178.55 295.779 1178.68 295.593C1178.69 295.581 1178.69 295.572 1178.7 295.56C1178.7 295.551 1178.71 295.539 1178.72 295.53C1178.85 295.349 1178.93 295.09 1178.92 294.754ZM1174.36 293.74C1174.33 292.349 1174.31 290.966 1174.28 289.575C1175.26 289.548 1176.24 289.522 1177.22 289.495C1177.24 290.886 1177.27 292.269 1177.3 293.66C1176.31 293.686 1175.34 293.713 1174.36 293.74Z" fill="url(#paint44_linear_440_411)"/>
<path d="M1063.25 169.659C1063.21 167.515 1063.17 165.362 1063.13 163.218C1063.11 162.605 1062.73 162.09 1062.3 162.101C1060.79 162.143 1059.27 162.184 1057.76 162.225C1057.32 162.237 1056.96 162.773 1056.97 163.385C1057.01 165.53 1057.06 167.682 1057.1 169.826C1057.11 170.439 1057.49 170.955 1057.92 170.943C1059.43 170.902 1060.95 170.86 1062.47 170.819C1062.7 170.813 1062.88 170.684 1063 170.498C1063.01 170.485 1063.02 170.477 1063.03 170.464C1063.03 170.456 1063.04 170.443 1063.05 170.435C1063.17 170.253 1063.26 169.994 1063.25 169.659ZM1058.68 168.644C1058.66 167.253 1058.63 165.871 1058.61 164.48C1059.59 164.453 1060.56 164.427 1061.54 164.4C1061.57 165.791 1061.6 167.173 1061.62 168.564C1060.64 168.591 1059.66 168.614 1058.68 168.644Z" fill="url(#paint45_linear_440_411)"/>
<path d="M1086.49 201.117C1086.45 198.973 1086.41 196.82 1086.37 194.676C1086.35 194.063 1085.97 193.547 1085.54 193.559C1084.03 193.6 1082.51 193.642 1081 193.683C1080.56 193.695 1080.2 194.23 1080.21 194.843C1080.26 196.987 1080.3 199.14 1080.34 201.284C1080.35 201.897 1080.73 202.413 1081.16 202.401C1082.67 202.36 1084.19 202.318 1085.71 202.277C1085.94 202.271 1086.12 202.142 1086.24 201.956C1086.25 201.943 1086.26 201.935 1086.27 201.922C1086.27 201.914 1086.28 201.901 1086.29 201.893C1086.41 201.711 1086.5 201.452 1086.49 201.117ZM1081.92 200.102C1081.9 198.711 1081.87 197.329 1081.85 195.938C1082.83 195.911 1083.8 195.884 1084.78 195.858C1084.81 197.249 1084.84 198.631 1084.86 200.022C1083.88 200.049 1082.9 200.071 1081.92 200.102Z" fill="url(#paint46_linear_440_411)"/>
<path d="M1109.73 232.575C1109.69 230.431 1109.65 228.278 1109.61 226.134C1109.59 225.522 1109.21 225.006 1108.78 225.018C1107.27 225.059 1105.75 225.1 1104.24 225.141C1103.8 225.153 1103.44 225.689 1103.46 226.302C1103.5 228.446 1103.54 230.598 1103.58 232.743C1103.59 233.355 1103.97 233.871 1104.4 233.859C1105.91 233.818 1107.43 233.777 1108.95 233.735C1109.18 233.729 1109.36 233.6 1109.48 233.414C1109.49 233.402 1109.5 233.393 1109.51 233.381C1109.51 233.372 1109.52 233.36 1109.53 233.351C1109.65 233.17 1109.74 232.91 1109.73 232.575ZM1105.16 231.561C1105.14 230.17 1105.11 228.787 1105.09 227.396C1106.07 227.369 1107.04 227.343 1108.02 227.316C1108.05 228.707 1108.08 230.09 1108.1 231.481C1107.12 231.507 1106.14 231.53 1105.16 231.561Z" fill="url(#paint47_linear_440_411)"/>
<path d="M1132.96 264.035C1132.92 261.891 1132.88 259.738 1132.84 257.594C1132.83 256.981 1132.45 256.466 1132.02 256.477C1130.51 256.518 1128.99 256.56 1127.47 256.601C1127.04 256.613 1126.68 257.149 1126.69 257.761C1126.73 259.906 1126.77 262.058 1126.81 264.202C1126.82 264.815 1127.2 265.331 1127.64 265.319C1129.15 265.278 1130.67 265.236 1132.18 265.195C1132.42 265.189 1132.59 265.06 1132.72 264.874C1132.73 264.861 1132.73 264.853 1132.74 264.84C1132.75 264.832 1132.76 264.819 1132.76 264.811C1132.89 264.629 1132.97 264.37 1132.96 264.035ZM1128.4 263.02C1128.37 261.629 1128.35 260.247 1128.32 258.856C1129.3 258.829 1130.28 258.803 1131.26 258.776C1131.29 260.167 1131.31 261.549 1131.34 262.94C1130.36 262.967 1129.38 262.993 1128.4 263.02Z" fill="url(#paint48_linear_440_411)"/>
<path d="M1156.2 295.495C1156.16 293.35 1156.12 291.198 1156.08 289.053C1156.07 288.441 1155.69 287.925 1155.26 287.937C1153.75 287.978 1152.23 288.019 1150.71 288.061C1150.28 288.072 1149.92 288.608 1149.93 289.221C1149.97 291.365 1150.01 293.518 1150.05 295.662C1150.06 296.275 1150.45 296.79 1150.88 296.778C1152.39 296.737 1153.91 296.696 1155.42 296.655C1155.66 296.648 1155.83 296.519 1155.96 296.334C1155.97 296.321 1155.97 296.313 1155.98 296.3C1155.99 296.291 1156 296.279 1156 296.27C1156.13 296.089 1156.21 295.83 1156.2 295.495ZM1151.64 294.48C1151.61 293.089 1151.59 291.706 1151.56 290.315C1152.54 290.289 1153.52 290.262 1154.5 290.235C1154.53 291.626 1154.55 293.009 1154.58 294.4C1153.6 294.427 1152.62 294.453 1151.64 294.48Z" fill="url(#paint49_linear_440_411)"/>
<path d="M1128.8 6.4513C1128.76 4.30702 1128.72 2.15447 1128.68 0.0101943C1128.67 -0.602457 1128.29 -1.11808 1127.86 -1.10632C1126.34 -1.06514 1124.83 -1.02382 1123.31 -0.982641C1122.88 -0.970876 1122.52 -0.43506 1122.53 0.177591C1122.57 2.32187 1122.61 4.47444 1122.65 6.61872C1122.66 7.23137 1123.04 7.74699 1123.48 7.73523C1124.99 7.69405 1126.51 7.6527 1128.02 7.61153C1128.26 7.60517 1128.43 7.47606 1128.56 7.29042C1128.57 7.27776 1128.57 7.26932 1128.58 7.25666C1128.59 7.24822 1128.6 7.23556 1128.6 7.22713C1128.73 7.04149 1128.81 6.78668 1128.8 6.4513ZM1124.24 5.44077C1124.21 4.04989 1124.19 2.66727 1124.16 1.27639C1125.14 1.24968 1126.12 1.22314 1127.1 1.19643C1127.12 2.58731 1127.15 3.9699 1127.18 5.36079C1126.2 5.38328 1125.22 5.41 1124.24 5.44077Z" fill="url(#paint50_linear_440_411)"/>
<path d="M1106.08 7.19034C1106.04 5.04606 1106 2.89349 1105.96 0.749208C1105.95 0.136557 1105.57 -0.379069 1105.14 -0.367303C1103.63 -0.326127 1102.11 -0.284778 1100.59 -0.243601C1100.16 -0.231837 1099.8 0.30398 1099.81 0.916631C1099.85 3.06091 1099.89 5.21345 1099.93 7.35773C1099.95 7.97038 1100.33 8.48601 1100.76 8.47424C1102.27 8.43307 1103.79 8.39174 1105.3 8.35057C1105.54 8.34421 1105.72 8.2151 1105.84 8.02946C1105.85 8.0168 1105.85 8.00836 1105.86 7.9957C1105.87 7.98726 1105.88 7.9746 1105.88 7.96616C1106.01 7.78053 1106.09 7.52572 1106.08 7.19034ZM1101.52 6.17978C1101.49 4.7889 1101.47 3.40631 1101.44 2.01543C1102.42 1.98872 1103.4 1.96215 1104.38 1.93544C1104.4 3.32633 1104.43 4.70894 1104.46 6.09983C1103.48 6.12232 1102.5 6.14901 1101.52 6.17978Z" fill="url(#paint51_linear_440_411)"/>
<path d="M1083.36 7.9281C1083.32 5.78382 1083.28 3.63125 1083.24 1.48697C1083.23 0.874319 1082.85 0.358694 1082.42 0.370459C1080.91 0.411636 1079.39 0.452984 1077.87 0.494161C1077.44 0.505926 1077.08 1.04174 1077.09 1.65439C1077.13 3.79867 1077.17 5.95122 1077.21 8.09549C1077.22 8.70814 1077.61 9.22377 1078.04 9.21201C1079.55 9.17083 1081.07 9.12951 1082.58 9.08833C1082.82 9.08197 1082.99 8.95286 1083.12 8.76722C1083.13 8.75457 1083.13 8.74612 1083.14 8.73346C1083.15 8.72503 1083.16 8.71237 1083.16 8.70393C1083.28 8.52251 1083.37 8.26348 1083.36 7.9281ZM1078.79 6.91348C1078.77 5.5226 1078.74 4.14001 1078.72 2.74912C1079.7 2.72241 1080.67 2.69585 1081.66 2.66914C1081.68 4.06003 1081.71 5.44264 1081.73 6.83353C1080.76 6.86008 1079.78 6.88677 1078.79 6.91348Z" fill="url(#paint52_linear_440_411)"/>
<path d="M1106.6 39.3877C1106.56 37.2434 1106.52 35.0909 1106.48 32.9466C1106.47 32.3339 1106.09 31.8183 1105.66 31.8301C1104.15 31.8713 1102.63 31.9126 1101.11 31.9538C1100.68 31.9656 1100.32 32.5014 1100.33 33.114C1100.37 35.2583 1100.41 37.4108 1100.45 39.5551C1100.46 40.1678 1100.85 40.6834 1101.28 40.6716C1102.79 40.6305 1104.31 40.5891 1105.82 40.548C1106.06 40.5416 1106.24 40.4125 1106.36 40.2268C1106.37 40.2142 1106.37 40.2057 1106.38 40.1931C1106.39 40.1847 1106.4 40.172 1106.4 40.1636C1106.53 39.9821 1106.61 39.7231 1106.6 39.3877ZM1102.04 38.3772C1102.01 36.9863 1101.99 35.6037 1101.96 34.2128C1102.94 34.1861 1103.92 34.1595 1104.9 34.1328C1104.92 35.5237 1104.95 36.9063 1104.98 38.2972C1104 38.3197 1103.02 38.3464 1102.04 38.3772Z" fill="url(#paint53_linear_440_411)"/>
<path d="M1060.65 8.66586C1060.61 6.52159 1060.57 4.36904 1060.53 2.22476C1060.51 1.61211 1060.13 1.09649 1059.7 1.10825C1058.19 1.14943 1056.67 1.19075 1055.16 1.23193C1054.72 1.24369 1054.36 1.77951 1054.37 2.39216C1054.42 4.53644 1054.46 6.68901 1054.5 8.83329C1054.51 9.44594 1054.89 9.96156 1055.32 9.9498C1056.83 9.90862 1058.35 9.86727 1059.87 9.8261C1060.1 9.81974 1060.28 9.69063 1060.4 9.50499C1060.41 9.49233 1060.42 9.48391 1060.43 9.47126C1060.43 9.46282 1060.44 9.45016 1060.45 9.44172C1060.57 9.2603 1060.65 9.00125 1060.65 8.66586ZM1056.08 7.65127C1056.05 6.26039 1056.03 4.87777 1056 3.48689C1056.98 3.46018 1057.96 3.43364 1058.94 3.40694C1058.96 4.79782 1058.99 6.18041 1059.02 7.57129C1058.04 7.60206 1057.06 7.62456 1056.08 7.65127Z" fill="url(#paint54_linear_440_411)"/>
<path d="M1083.89 40.1261C1083.85 37.9818 1083.8 35.8293 1083.76 33.685C1083.75 33.0723 1083.37 32.5567 1082.94 32.5685C1081.43 32.6097 1079.91 32.651 1078.4 32.6922C1077.96 32.7039 1077.6 33.2397 1077.61 33.8524C1077.65 35.9967 1077.69 38.1492 1077.73 40.2935C1077.75 40.9062 1078.13 41.4218 1078.56 41.41C1080.07 41.3689 1081.59 41.3275 1083.1 41.2863C1083.34 41.28 1083.52 41.1509 1083.64 40.9652C1083.65 40.9526 1083.66 40.9441 1083.66 40.9315C1083.67 40.9231 1083.68 40.9104 1083.68 40.902C1083.81 40.7205 1083.89 40.4615 1083.89 40.1261ZM1079.32 39.1156C1079.29 37.7247 1079.27 36.3421 1079.24 34.9512C1080.22 34.9245 1081.2 34.8979 1082.18 34.8712C1082.21 36.2621 1082.23 37.6447 1082.26 39.0356C1081.28 39.0623 1080.3 39.0848 1079.32 39.1156Z" fill="url(#paint55_linear_440_411)"/>
<path d="M1037.93 9.40244C1037.89 7.25816 1037.85 5.10561 1037.81 2.96134C1037.8 2.34868 1037.42 1.83306 1036.98 1.84482C1035.47 1.886 1033.95 1.92732 1032.44 1.9685C1032.01 1.98027 1031.64 2.51608 1031.66 3.12873C1031.7 5.27301 1031.74 7.42558 1031.78 9.56986C1031.79 10.1825 1032.17 10.6981 1032.6 10.6864C1034.11 10.6452 1035.63 10.6039 1037.15 10.5627C1037.38 10.5563 1037.56 10.4272 1037.68 10.2416C1037.69 10.2289 1037.7 10.2205 1037.71 10.2078C1037.71 10.1994 1037.72 10.1867 1037.73 10.1783C1037.85 9.99685 1037.93 9.73782 1037.93 9.40244ZM1033.36 8.38785C1033.33 6.99697 1033.31 5.61435 1033.28 4.22347C1034.26 4.19676 1035.24 4.17022 1036.22 4.14351C1036.25 5.5344 1036.27 6.91699 1036.3 8.30787C1035.32 8.33864 1034.34 8.36114 1033.36 8.38785Z" fill="url(#paint56_linear_440_411)"/>
<path d="M1061.17 40.8633C1061.13 38.719 1061.09 36.5665 1061.05 34.4222C1061.04 33.8095 1060.66 33.2939 1060.22 33.3057C1058.71 33.3468 1057.19 33.3882 1055.68 33.4293C1055.25 33.4411 1054.88 33.9769 1054.9 34.5896C1054.94 36.7339 1054.98 38.8864 1055.02 41.0307C1055.03 41.6434 1055.41 42.159 1055.84 42.1472C1057.36 42.106 1058.87 42.0647 1060.39 42.0235C1060.62 42.0172 1060.8 41.888 1060.92 41.7024C1060.93 41.6898 1060.94 41.6813 1060.95 41.6686C1060.95 41.6602 1060.96 41.6476 1060.97 41.6391C1061.09 41.4577 1061.17 41.1987 1061.17 40.8633ZM1056.6 39.8487C1056.57 38.4578 1056.55 37.0752 1056.52 35.6843C1057.5 35.6576 1058.48 35.6311 1059.46 35.6044C1059.49 36.9952 1059.51 38.3778 1059.54 39.7687C1058.56 39.7995 1057.58 39.822 1056.6 39.8487Z" fill="url(#paint57_linear_440_411)"/>
<path d="M1084.41 72.3223C1084.37 70.178 1084.33 68.0255 1084.29 65.8812C1084.27 65.2686 1083.89 64.753 1083.46 64.7647C1081.95 64.8059 1080.43 64.8472 1078.92 64.8884C1078.48 64.9002 1078.12 65.436 1078.13 66.0486C1078.18 68.1929 1078.22 70.3455 1078.26 72.4898C1078.27 73.1024 1078.65 73.618 1079.08 73.6063C1080.59 73.5651 1082.11 73.5237 1083.63 73.4826C1083.86 73.4762 1084.04 73.3471 1084.16 73.1615C1084.17 73.1488 1084.18 73.1404 1084.19 73.1277C1084.19 73.1193 1084.2 73.1066 1084.21 73.0982C1084.33 72.9167 1084.41 72.6577 1084.41 72.3223ZM1079.84 71.3118C1079.81 69.9209 1079.79 68.5383 1079.76 67.1474C1080.74 67.1207 1081.72 67.0942 1082.7 67.0675C1082.73 68.4583 1082.75 69.8409 1082.78 71.2318C1081.8 71.2585 1080.82 71.281 1079.84 71.3118Z" fill="url(#paint58_linear_440_411)"/>
<path d="M1015.21 10.147C1015.17 8.0027 1015.13 5.85012 1015.08 3.70584C1015.07 3.09319 1014.69 2.57757 1014.26 2.58933C1012.75 2.63051 1011.23 2.67186 1009.72 2.71303C1009.28 2.7248 1008.92 3.26061 1008.93 3.87327C1008.97 6.01754 1009.01 8.17009 1009.05 10.3144C1009.07 10.927 1009.45 11.4426 1009.88 11.4309C1011.39 11.3897 1012.91 11.3484 1014.42 11.3072C1014.66 11.3008 1014.84 11.1717 1014.96 10.9861C1014.97 10.9734 1014.98 10.965 1014.98 10.9523C1014.99 10.9439 1015 10.9312 1015 10.9228C1015.13 10.7372 1015.21 10.4781 1015.21 10.147ZM1010.64 9.12814C1010.61 7.73725 1010.59 6.35466 1010.56 4.96378C1011.54 4.93707 1012.52 4.91051 1013.5 4.8838C1013.53 6.27468 1013.55 7.6573 1013.58 9.04818C1012.6 9.07895 1011.62 9.10143 1010.64 9.12814Z" fill="url(#paint59_linear_440_411)"/>
<path d="M1038.45 41.6054C1038.41 39.4611 1038.37 37.3085 1038.33 35.1642C1038.31 34.5516 1037.93 34.036 1037.5 34.0477C1035.99 34.0889 1034.47 34.1303 1032.96 34.1714C1032.52 34.1832 1032.16 34.719 1032.17 35.3317C1032.21 37.4759 1032.25 39.6285 1032.29 41.7728C1032.31 42.3854 1032.69 42.901 1033.12 42.8893C1034.63 42.8481 1036.15 42.8068 1037.66 42.7656C1037.9 42.7592 1038.08 42.6301 1038.2 42.4445C1038.21 42.4318 1038.22 42.4234 1038.22 42.4107C1038.23 42.4023 1038.24 42.3896 1038.24 42.3812C1038.37 42.1956 1038.45 41.9365 1038.45 41.6054ZM1033.88 40.5865C1033.85 39.1957 1033.83 37.8131 1033.8 36.4222C1034.78 36.3955 1035.76 36.3689 1036.74 36.3422C1036.77 37.7331 1036.79 39.1157 1036.82 40.5066C1035.84 40.5373 1034.86 40.5598 1033.88 40.5865Z" fill="url(#paint60_linear_440_411)"/>
<path d="M1061.68 73.0656C1061.64 70.9213 1061.6 68.7688 1061.56 66.6245C1061.55 66.0118 1061.17 65.4962 1060.74 65.508C1059.23 65.5491 1057.71 65.5905 1056.19 65.6317C1055.76 65.6434 1055.4 66.1793 1055.41 66.7919C1055.45 68.9362 1055.49 71.0887 1055.53 73.233C1055.54 73.8457 1055.93 74.3613 1056.36 74.3495C1057.87 74.3083 1059.39 74.267 1060.9 74.2258C1061.14 74.2195 1061.32 74.0904 1061.44 73.9047C1061.45 73.8921 1061.45 73.8836 1061.46 73.871C1061.47 73.8625 1061.48 73.8499 1061.48 73.8414C1061.61 73.6558 1061.69 73.3968 1061.68 73.0656ZM1057.12 72.0508C1057.1 70.66 1057.07 69.2774 1057.04 67.8865C1058.02 67.8598 1059 67.8332 1059.98 67.8065C1060.01 69.1974 1060.03 70.58 1060.06 71.9709C1059.08 71.9976 1058.1 72.0201 1057.12 72.0508Z" fill="url(#paint61_linear_440_411)"/>
<path d="M992.491 10.886C992.451 8.7417 992.41 6.58913 992.37 4.44486C992.359 3.83221 991.978 3.31658 991.545 3.32834C990.032 3.36952 988.514 3.41087 987.001 3.45205C986.568 3.46381 986.207 3.99963 986.219 4.61228C986.259 6.75656 986.3 8.9091 986.34 11.0534C986.351 11.666 986.732 12.1817 987.164 12.1699C988.677 12.1287 990.196 12.0874 991.709 12.0462C991.943 12.0399 992.122 11.9107 992.247 11.7251C992.255 11.7124 992.261 11.704 992.27 11.6914C992.275 11.6829 992.284 11.6703 992.289 11.6618C992.415 11.4762 992.497 11.2171 992.491 10.886ZM987.925 9.86715C987.899 8.47627 987.873 7.09368 987.847 5.70279C988.828 5.67608 989.804 5.64952 990.785 5.62281C990.811 7.01369 990.837 8.39631 990.863 9.78719C989.882 9.8139 988.906 9.84044 987.925 9.86715Z" fill="url(#paint62_linear_440_411)"/>
<path d="M1015.73 42.3432C1015.69 40.1989 1015.65 38.0463 1015.61 35.902C1015.59 35.2894 1015.21 34.7738 1014.78 34.7855C1013.27 34.8267 1011.75 34.8681 1010.24 34.9092C1009.8 34.921 1009.44 35.4568 1009.46 36.0695C1009.5 38.2137 1009.54 40.3663 1009.58 42.5106C1009.59 43.1232 1009.97 43.6388 1010.4 43.6271C1011.91 43.5859 1013.43 43.5446 1014.95 43.5034C1015.18 43.497 1015.36 43.3679 1015.48 43.1823C1015.49 43.1696 1015.5 43.1612 1015.51 43.1485C1015.51 43.1401 1015.52 43.1274 1015.53 43.119C1015.65 42.9334 1015.73 42.6743 1015.73 42.3432ZM1011.16 41.3243C1011.14 39.9335 1011.11 38.5509 1011.08 37.16C1012.06 37.1333 1013.04 37.1067 1014.02 37.08C1014.05 38.4709 1014.07 39.8535 1014.1 41.2444C1013.12 41.2751 1012.14 41.2976 1011.16 41.3243Z" fill="url(#paint63_linear_440_411)"/>
<path d="M1038.97 73.8034C1038.93 71.6591 1038.89 69.5065 1038.85 67.3622C1038.84 66.7496 1038.45 66.234 1038.02 66.2457C1036.51 66.2869 1034.99 66.3283 1033.48 66.3694C1033.04 66.3812 1032.68 66.917 1032.7 67.5297C1032.74 69.6739 1032.78 71.8265 1032.82 73.9708C1032.83 74.5834 1033.21 75.099 1033.64 75.0873C1035.15 75.0461 1036.67 75.0048 1038.19 74.9636C1038.42 74.9572 1038.6 74.8281 1038.72 74.6425C1038.73 74.6298 1038.74 74.6214 1038.75 74.6087C1038.75 74.6003 1038.76 74.5876 1038.77 74.5792C1038.89 74.3936 1038.97 74.1345 1038.97 73.8034ZM1034.4 72.7845C1034.38 71.3936 1034.35 70.0111 1034.32 68.6202C1035.3 68.5935 1036.28 68.5669 1037.26 68.5402C1037.29 69.9311 1037.31 71.3137 1037.34 72.7046C1036.36 72.7353 1035.38 72.7578 1034.4 72.7845Z" fill="url(#paint64_linear_440_411)"/>
<path d="M1062.21 105.262C1062.17 103.118 1062.13 100.966 1062.08 98.8213C1062.07 98.2086 1061.69 97.693 1061.26 97.7047C1059.75 97.7459 1058.23 97.7873 1056.72 97.8285C1056.28 97.8402 1055.92 98.376 1055.93 98.9887C1055.97 101.133 1056.01 103.286 1056.05 105.43C1056.07 106.042 1056.45 106.558 1056.88 106.546C1058.39 106.505 1059.91 106.464 1061.42 106.423C1061.66 106.416 1061.84 106.287 1061.96 106.101C1061.97 106.089 1061.98 106.08 1061.98 106.068C1061.99 106.059 1062 106.047 1062 106.038C1062.13 105.853 1062.21 105.594 1062.21 105.262ZM1057.64 104.248C1057.62 102.857 1057.59 101.474 1057.56 100.083C1058.55 100.057 1059.52 100.03 1060.5 100.003C1060.53 101.394 1060.55 102.777 1060.58 104.168C1059.6 104.194 1058.62 104.217 1057.64 104.248Z" fill="url(#paint65_linear_440_411)"/>
<path d="M969.77 11.6225C969.73 9.47825 969.69 7.32571 969.649 5.18143C969.638 4.56878 969.257 4.05315 968.825 4.06492C967.312 4.10609 965.793 4.14742 964.28 4.18859C963.848 4.20036 963.487 4.73617 963.498 5.34883C963.538 7.4931 963.579 9.64567 963.619 11.79C963.631 12.4026 964.011 12.9182 964.444 12.9065C965.957 12.8653 967.476 12.8239 968.989 12.7828C969.222 12.7764 969.401 12.6473 969.526 12.4617C969.535 12.449 969.54 12.4406 969.549 12.4279C969.555 12.4195 969.563 12.4068 969.569 12.3984C969.694 12.2128 969.777 11.9537 969.77 11.6225ZM965.204 10.6037C965.178 9.21283 965.152 7.83022 965.126 6.43933C966.107 6.41262 967.083 6.38609 968.064 6.35938C968.09 7.75026 968.116 9.13286 968.143 10.5237C967.161 10.5504 966.186 10.577 965.204 10.6037Z" fill="url(#paint66_linear_440_411)"/>
<path d="M993.011 43.0821C992.97 40.9379 992.93 38.7853 992.89 36.641C992.878 36.0284 992.497 35.5127 992.065 35.5245C990.552 35.5657 989.033 35.607 987.52 35.6482C987.088 35.66 986.727 36.1958 986.738 36.8084C986.779 38.9527 986.819 41.1053 986.859 43.2495C986.871 43.8622 987.252 44.3778 987.684 44.3661C989.197 44.3249 990.716 44.2835 992.229 44.2424C992.463 44.236 992.641 44.1069 992.766 43.9213C992.775 43.9086 992.781 43.9002 992.789 43.8875C992.795 43.8791 992.803 43.8664 992.809 43.858C992.934 43.6723 993.017 43.4133 993.011 43.0821ZM988.444 42.0633C988.418 40.6724 988.392 39.2898 988.366 37.8989C989.348 37.8722 990.323 37.8457 991.304 37.819C991.331 39.2099 991.357 40.5925 991.383 41.9833C990.404 42.0141 989.426 42.0366 988.444 42.0633Z" fill="url(#paint67_linear_440_411)"/>
<path d="M1016.25 74.5405C1016.21 72.3963 1016.17 70.2437 1016.13 68.0994C1016.12 67.4868 1015.74 66.9712 1015.3 66.9829C1013.79 67.0241 1012.27 67.0654 1010.76 67.1066C1010.33 67.1184 1009.97 67.6542 1009.98 68.2668C1010.02 70.4111 1010.06 72.5637 1010.1 74.708C1010.11 75.3206 1010.49 75.8362 1010.92 75.8245C1012.44 75.7833 1013.95 75.7419 1015.47 75.7008C1015.7 75.6944 1015.88 75.5653 1016 75.3797C1016.01 75.367 1016.02 75.3586 1016.03 75.3459C1016.03 75.3375 1016.04 75.3248 1016.05 75.3164C1016.17 75.1307 1016.26 74.8717 1016.25 74.5405ZM1011.68 73.5217C1011.66 72.1308 1011.63 70.7482 1011.6 69.3573C1012.59 69.3306 1013.56 69.3041 1014.54 69.2774C1014.57 70.6683 1014.59 72.0509 1014.62 73.4417C1013.64 73.4725 1012.66 73.495 1011.68 73.5217Z" fill="url(#paint68_linear_440_411)"/>
<path d="M1039.49 106.001C1039.45 103.857 1039.41 101.705 1039.37 99.5603C1039.36 98.9477 1038.98 98.432 1038.54 98.4438C1037.03 98.485 1035.51 98.5263 1034 98.5675C1033.57 98.5792 1033.21 99.1151 1033.22 99.7277C1033.26 101.872 1033.3 104.025 1033.34 106.169C1033.35 106.781 1033.73 107.297 1034.16 107.285C1035.68 107.244 1037.19 107.203 1038.71 107.162C1038.94 107.155 1039.12 107.026 1039.24 106.841C1039.25 106.828 1039.26 106.819 1039.27 106.807C1039.27 106.798 1039.28 106.786 1039.29 106.777C1039.41 106.592 1039.5 106.333 1039.49 106.001ZM1034.93 104.987C1034.9 103.596 1034.87 102.213 1034.85 100.822C1035.83 100.796 1036.8 100.769 1037.79 100.742C1037.81 102.133 1037.84 103.516 1037.86 104.907C1036.88 104.933 1035.9 104.956 1034.93 104.987Z" fill="url(#paint69_linear_440_411)"/>
<path d="M947.048 12.3566C947.008 10.2124 946.967 8.05981 946.927 5.91553C946.915 5.30288 946.534 4.78725 946.102 4.79902C944.589 4.84019 943.07 4.88152 941.557 4.92269C941.125 4.93446 940.764 5.47027 940.775 6.08293C940.816 8.2272 940.856 10.3798 940.896 12.5241C940.908 13.1367 941.289 13.6523 941.721 13.6406C943.234 13.5994 944.753 13.558 946.266 13.5169C946.5 13.5105 946.678 13.3814 946.803 13.1958C946.812 13.1831 946.818 13.1747 946.826 13.162C946.832 13.1536 946.84 13.1409 946.846 13.1325C946.974 12.9509 947.057 12.6919 947.048 12.3566ZM942.484 11.3419C942.458 9.95099 942.432 8.56838 942.406 7.17749C943.388 7.15079 944.363 7.12425 945.345 7.09754C945.371 8.48842 945.397 9.87101 945.423 11.2619C944.441 11.2886 943.466 11.3152 942.484 11.3419Z" fill="url(#paint70_linear_440_411)"/>
<path d="M970.292 43.8211C970.252 41.6769 970.211 39.5243 970.171 37.38C970.159 36.7674 969.779 36.2518 969.346 36.2635C967.833 36.3047 966.314 36.346 964.801 36.3872C964.369 36.399 964.008 36.9348 964.02 37.5474C964.06 39.6917 964.1 41.8443 964.141 43.9886C964.152 44.6012 964.533 45.1168 964.965 45.1051C966.478 45.0639 967.997 45.0225 969.51 44.9814C969.744 44.975 969.923 44.8459 970.048 44.6603C970.056 44.6476 970.062 44.6392 970.07 44.6265C970.076 44.6181 970.085 44.6054 970.09 44.597C970.215 44.4113 970.298 44.1523 970.292 43.8211ZM965.726 42.8023C965.699 41.4114 965.674 40.0288 965.647 38.6379C966.629 38.6112 967.604 38.5847 968.586 38.558C968.612 39.9489 968.638 41.3315 968.664 42.7223C967.683 42.7491 966.707 42.7756 965.726 42.8023Z" fill="url(#paint71_linear_440_411)"/>
<path d="M993.528 75.2784C993.488 73.1341 993.447 70.9815 993.407 68.8373C993.396 68.2246 993.015 67.709 992.582 67.7207C991.069 67.7619 989.551 67.8032 988.038 67.8444C987.605 67.8562 987.244 68.392 987.256 69.0046C987.296 71.1489 987.337 73.3015 987.377 75.4458C987.388 76.0584 987.769 76.5741 988.201 76.5623C989.714 76.5211 991.233 76.4798 992.746 76.4386C992.98 76.4322 993.159 76.3031 993.284 76.1175C993.292 76.1048 993.298 76.0964 993.307 76.0837C993.312 76.0753 993.321 76.0626 993.326 76.0542C993.452 75.8686 993.534 75.6095 993.528 75.2784ZM988.962 74.2595C988.936 72.8687 988.91 71.486 988.884 70.0952C989.865 70.0685 990.841 70.0419 991.822 70.0152C991.848 71.4061 991.874 72.7887 991.9 74.1796C990.922 74.2103 989.943 74.2328 988.962 74.2595Z" fill="url(#paint72_linear_440_411)"/>
<path d="M1016.77 106.739C1016.73 104.595 1016.69 102.442 1016.65 100.298C1016.64 99.6854 1016.26 99.1698 1015.82 99.1816C1014.31 99.2228 1012.79 99.2641 1011.28 99.3053C1010.85 99.317 1010.48 99.8528 1010.5 100.465C1010.54 102.61 1010.58 104.762 1010.62 106.907C1010.63 107.519 1011.01 108.035 1011.44 108.023C1012.95 107.982 1014.47 107.941 1015.99 107.899C1016.22 107.893 1016.4 107.764 1016.52 107.578C1016.53 107.566 1016.54 107.557 1016.55 107.545C1016.55 107.536 1016.56 107.523 1016.57 107.515C1016.69 107.329 1016.77 107.07 1016.77 106.739ZM1012.2 105.72C1012.18 104.33 1012.15 102.947 1012.12 101.556C1013.11 101.529 1014.08 101.503 1015.06 101.476C1015.09 102.867 1015.11 104.25 1015.14 105.64C1014.16 105.671 1013.18 105.694 1012.2 105.72Z" fill="url(#paint73_linear_440_411)"/>
<path d="M1040.01 138.198C1039.97 136.054 1039.93 133.901 1039.89 131.757C1039.88 131.144 1039.5 130.629 1039.06 130.641C1037.55 130.682 1036.03 130.723 1034.52 130.764C1034.09 130.776 1033.72 131.312 1033.74 131.924C1033.78 134.069 1033.82 136.221 1033.86 138.366C1033.87 138.978 1034.25 139.494 1034.68 139.482C1036.2 139.441 1037.71 139.4 1039.23 139.358C1039.46 139.352 1039.64 139.223 1039.76 139.037C1039.77 139.025 1039.78 139.016 1039.79 139.004C1039.79 138.995 1039.8 138.982 1039.81 138.974C1039.93 138.788 1040.01 138.529 1040.01 138.198ZM1035.45 137.183C1035.42 135.793 1035.39 134.41 1035.37 133.019C1036.35 132.992 1037.32 132.966 1038.31 132.939C1038.33 134.33 1038.36 135.713 1038.38 137.103C1037.4 137.13 1036.42 137.153 1035.45 137.183Z" fill="url(#paint74_linear_440_411)"/>
</g>
<rect width="249.126" height="313.262" rx="20" transform="matrix(-0.643192 0.765705 -0.643192 -0.765705 1361.72 404.152)" fill="#4EAF4E"/>
</g>
<defs>
<linearGradient id="paint0_linear_440_411" x1="1183.83" y1="-413.104" x2="1212.9" y2="353.41" gradientUnits="userSpaceOnUse">
<stop stop-color="#BE965D"/>
<stop offset="0.2784" stop-color="#976F40"/>
<stop offset="0.4259" stop-color="#C99B61"/>
<stop offset="0.5584" stop-color="#F0BE7B"/>
<stop offset="0.6275" stop-color="#FFCB85"/>
<stop offset="0.7085" stop-color="#EEBC79"/>
<stop offset="0.8693" stop-color="#C0935B"/>
<stop offset="1" stop-color="#976F40"/>
</linearGradient>
<linearGradient id="paint1_linear_440_411" x1="1161.11" y1="-412.121" x2="1190.19" y2="354.392" gradientUnits="userSpaceOnUse">
<stop stop-color="#BE965D"/>
<stop offset="0.2784" stop-color="#976F40"/>
<stop offset="0.4259" stop-color="#C99B61"/>
<stop offset="0.5584" stop-color="#F0BE7B"/>
<stop offset="0.6275" stop-color="#FFCB85"/>
<stop offset="0.7085" stop-color="#EEBC79"/>
<stop offset="0.8693" stop-color="#C0935B"/>
<stop offset="1" stop-color="#976F40"/>
</linearGradient>
<linearGradient id="paint2_linear_440_411" x1="1183.57" y1="-413.097" x2="1212.65" y2="353.416" gradientUnits="userSpaceOnUse">
<stop stop-color="#BE965D"/>
<stop offset="0.2784" stop-color="#976F40"/>
<stop offset="0.4259" stop-color="#C99B61"/>
<stop offset="0.5584" stop-color="#F0BE7B"/>
<stop offset="0.6275" stop-color="#FFCB85"/>
<stop offset="0.7085" stop-color="#EEBC79"/>
<stop offset="0.8693" stop-color="#C0935B"/>
<stop offset="1" stop-color="#976F40"/>
</linearGradient>
<linearGradient id="paint3_linear_440_411" x1="1138.4" y1="-411.141" x2="1167.48" y2="355.373" gradientUnits="userSpaceOnUse">
<stop stop-color="#BE965D"/>
<stop offset="0.2784" stop-color="#976F40"/>
<stop offset="0.4259" stop-color="#C99B61"/>
<stop offset="0.5584" stop-color="#F0BE7B"/>
<stop offset="0.6275" stop-color="#FFCB85"/>
<stop offset="0.7085" stop-color="#EEBC79"/>
<stop offset="0.8693" stop-color="#C0935B"/>
<stop offset="1" stop-color="#976F40"/>
</linearGradient>
<linearGradient id="paint4_linear_440_411" x1="1160.86" y1="-412.116" x2="1189.93" y2="354.397" gradientUnits="userSpaceOnUse">
<stop stop-color="#BE965D"/>
<stop offset="0.2784" stop-color="#976F40"/>
<stop offset="0.4259" stop-color="#C99B61"/>
<stop offset="0.5584" stop-color="#F0BE7B"/>
<stop offset="0.6275" stop-color="#FFCB85"/>
<stop offset="0.7085" stop-color="#EEBC79"/>
<stop offset="0.8693" stop-color="#C0935B"/>
<stop offset="1" stop-color="#976F40"/>
</linearGradient>
<linearGradient id="paint5_linear_440_411" x1="1183.31" y1="-413.093" x2="1212.39" y2="353.422" gradientUnits="userSpaceOnUse">
<stop stop-color="#BE965D"/>
<stop offset="0.2784" stop-color="#976F40"/>
<stop offset="0.4259" stop-color="#C99B61"/>
<stop offset="0.5584" stop-color="#F0BE7B"/>
<stop offset="0.6275" stop-color="#FFCB85"/>
<stop offset="0.7085" stop-color="#EEBC79"/>
<stop offset="0.8693" stop-color="#C0935B"/>
<stop offset="1" stop-color="#976F40"/>
</linearGradient>
<linearGradient id="paint6_linear_440_411" x1="1138.14" y1="-411.133" x2="1167.22" y2="355.38" gradientUnits="userSpaceOnUse">
<stop stop-color="#BE965D"/>
<stop offset="0.2784" stop-color="#976F40"/>
<stop offset="0.4259" stop-color="#C99B61"/>
<stop offset="0.5584" stop-color="#F0BE7B"/>
<stop offset="0.6275" stop-color="#FFCB85"/>
<stop offset="0.7085" stop-color="#EEBC79"/>
<stop offset="0.8693" stop-color="#C0935B"/>
<stop offset="1" stop-color="#976F40"/>
</linearGradient>
<linearGradient id="paint7_linear_440_411" x1="1160.6" y1="-412.109" x2="1189.68" y2="354.403" gradientUnits="userSpaceOnUse">
<stop stop-color="#BE965D"/>
<stop offset="0.2784" stop-color="#976F40"/>
<stop offset="0.4259" stop-color="#C99B61"/>
<stop offset="0.5584" stop-color="#F0BE7B"/>
<stop offset="0.6275" stop-color="#FFCB85"/>
<stop offset="0.7085" stop-color="#EEBC79"/>
<stop offset="0.8693" stop-color="#C0935B"/>
<stop offset="1" stop-color="#976F40"/>
</linearGradient>
<linearGradient id="paint8_linear_440_411" x1="1183.06" y1="-413.085" x2="1212.13" y2="353.428" gradientUnits="userSpaceOnUse">
<stop stop-color="#BE965D"/>
<stop offset="0.2784" stop-color="#976F40"/>
<stop offset="0.4259" stop-color="#C99B61"/>
<stop offset="0.5584" stop-color="#F0BE7B"/>
<stop offset="0.6275" stop-color="#FFCB85"/>
<stop offset="0.7085" stop-color="#EEBC79"/>
<stop offset="0.8693" stop-color="#C0935B"/>
<stop offset="1" stop-color="#976F40"/>
</linearGradient>
<linearGradient id="paint9_linear_440_411" x1="1115.43" y1="-410.152" x2="1144.51" y2="356.361" gradientUnits="userSpaceOnUse">
<stop stop-color="#BE965D"/>
<stop offset="0.2784" stop-color="#976F40"/>
<stop offset="0.4259" stop-color="#C99B61"/>
<stop offset="0.5584" stop-color="#F0BE7B"/>
<stop offset="0.6275" stop-color="#FFCB85"/>
<stop offset="0.7085" stop-color="#EEBC79"/>
<stop offset="0.8693" stop-color="#C0935B"/>
<stop offset="1" stop-color="#976F40"/>
</linearGradient>
<linearGradient id="paint10_linear_440_411" x1="1137.89" y1="-411.129" x2="1166.96" y2="355.385" gradientUnits="userSpaceOnUse">
<stop stop-color="#BE965D"/>
<stop offset="0.2784" stop-color="#976F40"/>
<stop offset="0.4259" stop-color="#C99B61"/>
<stop offset="0.5584" stop-color="#F0BE7B"/>
<stop offset="0.6275" stop-color="#FFCB85"/>
<stop offset="0.7085" stop-color="#EEBC79"/>
<stop offset="0.8693" stop-color="#C0935B"/>
<stop offset="1" stop-color="#976F40"/>
</linearGradient>
<linearGradient id="paint11_linear_440_411" x1="1160.34" y1="-412.104" x2="1189.42" y2="354.411" gradientUnits="userSpaceOnUse">
<stop stop-color="#BE965D"/>
<stop offset="0.2784" stop-color="#976F40"/>
<stop offset="0.4259" stop-color="#C99B61"/>
<stop offset="0.5584" stop-color="#F0BE7B"/>
<stop offset="0.6275" stop-color="#FFCB85"/>
<stop offset="0.7085" stop-color="#EEBC79"/>
<stop offset="0.8693" stop-color="#C0935B"/>
<stop offset="1" stop-color="#976F40"/>
</linearGradient>
<linearGradient id="paint12_linear_440_411" x1="1182.8" y1="-413.079" x2="1211.88" y2="353.435" gradientUnits="userSpaceOnUse">
<stop stop-color="#BE965D"/>
<stop offset="0.2784" stop-color="#976F40"/>
<stop offset="0.4259" stop-color="#C99B61"/>
<stop offset="0.5584" stop-color="#F0BE7B"/>
<stop offset="0.6275" stop-color="#FFCB85"/>
<stop offset="0.7085" stop-color="#EEBC79"/>
<stop offset="0.8693" stop-color="#C0935B"/>
<stop offset="1" stop-color="#976F40"/>
</linearGradient>
<linearGradient id="paint13_linear_440_411" x1="1115.18" y1="-410.146" x2="1144.25" y2="356.367" gradientUnits="userSpaceOnUse">
<stop stop-color="#BE965D"/>
<stop offset="0.2784" stop-color="#976F40"/>
<stop offset="0.4259" stop-color="#C99B61"/>
<stop offset="0.5584" stop-color="#F0BE7B"/>
<stop offset="0.6275" stop-color="#FFCB85"/>
<stop offset="0.7085" stop-color="#EEBC79"/>
<stop offset="0.8693" stop-color="#C0935B"/>
<stop offset="1" stop-color="#976F40"/>
</linearGradient>
<linearGradient id="paint14_linear_440_411" x1="1137.63" y1="-411.121" x2="1166.71" y2="355.391" gradientUnits="userSpaceOnUse">
<stop stop-color="#BE965D"/>
<stop offset="0.2784" stop-color="#976F40"/>
<stop offset="0.4259" stop-color="#C99B61"/>
<stop offset="0.5584" stop-color="#F0BE7B"/>
<stop offset="0.6275" stop-color="#FFCB85"/>
<stop offset="0.7085" stop-color="#EEBC79"/>
<stop offset="0.8693" stop-color="#C0935B"/>
<stop offset="1" stop-color="#976F40"/>
</linearGradient>
<linearGradient id="paint15_linear_440_411" x1="1160.09" y1="-412.096" x2="1189.17" y2="354.417" gradientUnits="userSpaceOnUse">
<stop stop-color="#BE965D"/>
<stop offset="0.2784" stop-color="#976F40"/>
<stop offset="0.4259" stop-color="#C99B61"/>
<stop offset="0.5584" stop-color="#F0BE7B"/>
<stop offset="0.6275" stop-color="#FFCB85"/>
<stop offset="0.7085" stop-color="#EEBC79"/>
<stop offset="0.8693" stop-color="#C0935B"/>
<stop offset="1" stop-color="#976F40"/>
</linearGradient>
<linearGradient id="paint16_linear_440_411" x1="1182.55" y1="-413.07" x2="1211.62" y2="353.443" gradientUnits="userSpaceOnUse">
<stop stop-color="#BE965D"/>
<stop offset="0.2784" stop-color="#976F40"/>
<stop offset="0.4259" stop-color="#C99B61"/>
<stop offset="0.5584" stop-color="#F0BE7B"/>
<stop offset="0.6275" stop-color="#FFCB85"/>
<stop offset="0.7085" stop-color="#EEBC79"/>
<stop offset="0.8693" stop-color="#C0935B"/>
<stop offset="1" stop-color="#976F40"/>
</linearGradient>
<linearGradient id="paint17_linear_440_411" x1="1092.46" y1="-409.166" x2="1121.54" y2="357.348" gradientUnits="userSpaceOnUse">
<stop stop-color="#BE965D"/>
<stop offset="0.2784" stop-color="#976F40"/>
<stop offset="0.4259" stop-color="#C99B61"/>
<stop offset="0.5584" stop-color="#F0BE7B"/>
<stop offset="0.6275" stop-color="#FFCB85"/>
<stop offset="0.7085" stop-color="#EEBC79"/>
<stop offset="0.8693" stop-color="#C0935B"/>
<stop offset="1" stop-color="#976F40"/>
</linearGradient>
<linearGradient id="paint18_linear_440_411" x1="1114.92" y1="-410.141" x2="1143.99" y2="356.373" gradientUnits="userSpaceOnUse">
<stop stop-color="#BE965D"/>
<stop offset="0.2784" stop-color="#976F40"/>
<stop offset="0.4259" stop-color="#C99B61"/>
<stop offset="0.5584" stop-color="#F0BE7B"/>
<stop offset="0.6275" stop-color="#FFCB85"/>
<stop offset="0.7085" stop-color="#EEBC79"/>
<stop offset="0.8693" stop-color="#C0935B"/>
<stop offset="1" stop-color="#976F40"/>
</linearGradient>
<linearGradient id="paint19_linear_440_411" x1="1137.37" y1="-411.117" x2="1166.45" y2="355.398" gradientUnits="userSpaceOnUse">
<stop stop-color="#BE965D"/>
<stop offset="0.2784" stop-color="#976F40"/>
<stop offset="0.4259" stop-color="#C99B61"/>
<stop offset="0.5584" stop-color="#F0BE7B"/>
<stop offset="0.6275" stop-color="#FFCB85"/>
<stop offset="0.7085" stop-color="#EEBC79"/>
<stop offset="0.8693" stop-color="#C0935B"/>
<stop offset="1" stop-color="#976F40"/>
</linearGradient>
<linearGradient id="paint20_linear_440_411" x1="1159.83" y1="-412.09" x2="1188.91" y2="354.423" gradientUnits="userSpaceOnUse">
<stop stop-color="#BE965D"/>
<stop offset="0.2784" stop-color="#976F40"/>
<stop offset="0.4259" stop-color="#C99B61"/>
<stop offset="0.5584" stop-color="#F0BE7B"/>
<stop offset="0.6275" stop-color="#FFCB85"/>
<stop offset="0.7085" stop-color="#EEBC79"/>
<stop offset="0.8693" stop-color="#C0935B"/>
<stop offset="1" stop-color="#976F40"/>
</linearGradient>
<linearGradient id="paint21_linear_440_411" x1="1182.29" y1="-413.067" x2="1211.36" y2="353.448" gradientUnits="userSpaceOnUse">
<stop stop-color="#BE965D"/>
<stop offset="0.2784" stop-color="#976F40"/>
<stop offset="0.4259" stop-color="#C99B61"/>
<stop offset="0.5584" stop-color="#F0BE7B"/>
<stop offset="0.6275" stop-color="#FFCB85"/>
<stop offset="0.7085" stop-color="#EEBC79"/>
<stop offset="0.8693" stop-color="#C0935B"/>
<stop offset="1" stop-color="#976F40"/>
</linearGradient>
<linearGradient id="paint22_linear_440_411" x1="1092.37" y1="-409.645" x2="1121.45" y2="356.867" gradientUnits="userSpaceOnUse">
<stop stop-color="#BE965D"/>
<stop offset="0.2784" stop-color="#976F40"/>
<stop offset="0.4259" stop-color="#C99B61"/>
<stop offset="0.5584" stop-color="#F0BE7B"/>
<stop offset="0.6275" stop-color="#FFCB85"/>
<stop offset="0.7085" stop-color="#EEBC79"/>
<stop offset="0.8693" stop-color="#C0935B"/>
<stop offset="1" stop-color="#976F40"/>
</linearGradient>
<linearGradient id="paint23_linear_440_411" x1="1114.66" y1="-410.133" x2="1143.74" y2="356.38" gradientUnits="userSpaceOnUse">
<stop stop-color="#BE965D"/>
<stop offset="0.2784" stop-color="#976F40"/>
<stop offset="0.4259" stop-color="#C99B61"/>
<stop offset="0.5584" stop-color="#F0BE7B"/>
<stop offset="0.6275" stop-color="#FFCB85"/>
<stop offset="0.7085" stop-color="#EEBC79"/>
<stop offset="0.8693" stop-color="#C0935B"/>
<stop offset="1" stop-color="#976F40"/>
</linearGradient>
<linearGradient id="paint24_linear_440_411" x1="1137.12" y1="-411.108" x2="1166.2" y2="355.405" gradientUnits="userSpaceOnUse">
<stop stop-color="#BE965D"/>
<stop offset="0.2784" stop-color="#976F40"/>
<stop offset="0.4259" stop-color="#C99B61"/>
<stop offset="0.5584" stop-color="#F0BE7B"/>
<stop offset="0.6275" stop-color="#FFCB85"/>
<stop offset="0.7085" stop-color="#EEBC79"/>
<stop offset="0.8693" stop-color="#C0935B"/>
<stop offset="1" stop-color="#976F40"/>
</linearGradient>
<linearGradient id="paint25_linear_440_411" x1="1159.58" y1="-412.083" x2="1188.65" y2="354.43" gradientUnits="userSpaceOnUse">
<stop stop-color="#BE965D"/>
<stop offset="0.2784" stop-color="#976F40"/>
<stop offset="0.4259" stop-color="#C99B61"/>
<stop offset="0.5584" stop-color="#F0BE7B"/>
<stop offset="0.6275" stop-color="#FFCB85"/>
<stop offset="0.7085" stop-color="#EEBC79"/>
<stop offset="0.8693" stop-color="#C0935B"/>
<stop offset="1" stop-color="#976F40"/>
</linearGradient>
<linearGradient id="paint26_linear_440_411" x1="1182.03" y1="-413.058" x2="1211.11" y2="353.455" gradientUnits="userSpaceOnUse">
<stop stop-color="#BE965D"/>
<stop offset="0.2784" stop-color="#976F40"/>
<stop offset="0.4259" stop-color="#C99B61"/>
<stop offset="0.5584" stop-color="#F0BE7B"/>
<stop offset="0.6275" stop-color="#FFCB85"/>
<stop offset="0.7085" stop-color="#EEBC79"/>
<stop offset="0.8693" stop-color="#C0935B"/>
<stop offset="1" stop-color="#976F40"/>
</linearGradient>
<linearGradient id="paint27_linear_440_411" x1="1069.49" y1="-408.176" x2="1098.57" y2="358.337" gradientUnits="userSpaceOnUse">
<stop stop-color="#BE965D"/>
<stop offset="0.2784" stop-color="#976F40"/>
<stop offset="0.4259" stop-color="#C99B61"/>
<stop offset="0.5584" stop-color="#F0BE7B"/>
<stop offset="0.6275" stop-color="#FFCB85"/>
<stop offset="0.7085" stop-color="#EEBC79"/>
<stop offset="0.8693" stop-color="#C0935B"/>
<stop offset="1" stop-color="#976F40"/>
</linearGradient>
<linearGradient id="paint28_linear_440_411" x1="1091.95" y1="-409.152" x2="1121.03" y2="357.361" gradientUnits="userSpaceOnUse">
<stop stop-color="#BE965D"/>
<stop offset="0.2784" stop-color="#976F40"/>
<stop offset="0.4259" stop-color="#C99B61"/>
<stop offset="0.5584" stop-color="#F0BE7B"/>
<stop offset="0.6275" stop-color="#FFCB85"/>
<stop offset="0.7085" stop-color="#EEBC79"/>
<stop offset="0.8693" stop-color="#C0935B"/>
<stop offset="1" stop-color="#976F40"/>
</linearGradient>
<linearGradient id="paint29_linear_440_411" x1="1114.4" y1="-410.128" x2="1143.48" y2="356.387" gradientUnits="userSpaceOnUse">
<stop stop-color="#BE965D"/>
<stop offset="0.2784" stop-color="#976F40"/>
<stop offset="0.4259" stop-color="#C99B61"/>
<stop offset="0.5584" stop-color="#F0BE7B"/>
<stop offset="0.6275" stop-color="#FFCB85"/>
<stop offset="0.7085" stop-color="#EEBC79"/>
<stop offset="0.8693" stop-color="#C0935B"/>
<stop offset="1" stop-color="#976F40"/>
</linearGradient>
<linearGradient id="paint30_linear_440_411" x1="1136.86" y1="-411.102" x2="1165.94" y2="355.412" gradientUnits="userSpaceOnUse">
<stop stop-color="#BE965D"/>
<stop offset="0.2784" stop-color="#976F40"/>
<stop offset="0.4259" stop-color="#C99B61"/>
<stop offset="0.5584" stop-color="#F0BE7B"/>
<stop offset="0.6275" stop-color="#FFCB85"/>
<stop offset="0.7085" stop-color="#EEBC79"/>
<stop offset="0.8693" stop-color="#C0935B"/>
<stop offset="1" stop-color="#976F40"/>
</linearGradient>
<linearGradient id="paint31_linear_440_411" x1="1159.32" y1="-412.079" x2="1188.39" y2="354.436" gradientUnits="userSpaceOnUse">
<stop stop-color="#BE965D"/>
<stop offset="0.2784" stop-color="#976F40"/>
<stop offset="0.4259" stop-color="#C99B61"/>
<stop offset="0.5584" stop-color="#F0BE7B"/>
<stop offset="0.6275" stop-color="#FFCB85"/>
<stop offset="0.7085" stop-color="#EEBC79"/>
<stop offset="0.8693" stop-color="#C0935B"/>
<stop offset="1" stop-color="#976F40"/>
</linearGradient>
<linearGradient id="paint32_linear_440_411" x1="1181.77" y1="-413.053" x2="1210.85" y2="353.46" gradientUnits="userSpaceOnUse">
<stop stop-color="#BE965D"/>
<stop offset="0.2784" stop-color="#976F40"/>
<stop offset="0.4259" stop-color="#C99B61"/>
<stop offset="0.5584" stop-color="#F0BE7B"/>
<stop offset="0.6275" stop-color="#FFCB85"/>
<stop offset="0.7085" stop-color="#EEBC79"/>
<stop offset="0.8693" stop-color="#C0935B"/>
<stop offset="1" stop-color="#976F40"/>
</linearGradient>
<linearGradient id="paint33_linear_440_411" x1="1069.24" y1="-408.17" x2="1098.31" y2="358.344" gradientUnits="userSpaceOnUse">
<stop stop-color="#BE965D"/>
<stop offset="0.2784" stop-color="#976F40"/>
<stop offset="0.4259" stop-color="#C99B61"/>
<stop offset="0.5584" stop-color="#F0BE7B"/>
<stop offset="0.6275" stop-color="#FFCB85"/>
<stop offset="0.7085" stop-color="#EEBC79"/>
<stop offset="0.8693" stop-color="#C0935B"/>
<stop offset="1" stop-color="#976F40"/>
</linearGradient>
<linearGradient id="paint34_linear_440_411" x1="1091.69" y1="-409.146" x2="1120.77" y2="357.369" gradientUnits="userSpaceOnUse">
<stop stop-color="#BE965D"/>
<stop offset="0.2784" stop-color="#976F40"/>
<stop offset="0.4259" stop-color="#C99B61"/>
<stop offset="0.5584" stop-color="#F0BE7B"/>
<stop offset="0.6275" stop-color="#FFCB85"/>
<stop offset="0.7085" stop-color="#EEBC79"/>
<stop offset="0.8693" stop-color="#C0935B"/>
<stop offset="1" stop-color="#976F40"/>
</linearGradient>
<linearGradient id="paint35_linear_440_411" x1="1114.15" y1="-410.121" x2="1143.23" y2="356.394" gradientUnits="userSpaceOnUse">
<stop stop-color="#BE965D"/>
<stop offset="0.2784" stop-color="#976F40"/>
<stop offset="0.4259" stop-color="#C99B61"/>
<stop offset="0.5584" stop-color="#F0BE7B"/>
<stop offset="0.6275" stop-color="#FFCB85"/>
<stop offset="0.7085" stop-color="#EEBC79"/>
<stop offset="0.8693" stop-color="#C0935B"/>
<stop offset="1" stop-color="#976F40"/>
</linearGradient>
<linearGradient id="paint36_linear_440_411" x1="1136.61" y1="-411.096" x2="1165.68" y2="355.419" gradientUnits="userSpaceOnUse">
<stop stop-color="#BE965D"/>
<stop offset="0.2784" stop-color="#976F40"/>
<stop offset="0.4259" stop-color="#C99B61"/>
<stop offset="0.5584" stop-color="#F0BE7B"/>
<stop offset="0.6275" stop-color="#FFCB85"/>
<stop offset="0.7085" stop-color="#EEBC79"/>
<stop offset="0.8693" stop-color="#C0935B"/>
<stop offset="1" stop-color="#976F40"/>
</linearGradient>
<linearGradient id="paint37_linear_440_411" x1="1159.06" y1="-412.071" x2="1188.14" y2="354.444" gradientUnits="userSpaceOnUse">
<stop stop-color="#BE965D"/>
<stop offset="0.2784" stop-color="#976F40"/>
<stop offset="0.4259" stop-color="#C99B61"/>
<stop offset="0.5584" stop-color="#F0BE7B"/>
<stop offset="0.6275" stop-color="#FFCB85"/>
<stop offset="0.7085" stop-color="#EEBC79"/>
<stop offset="0.8693" stop-color="#C0935B"/>
<stop offset="1" stop-color="#976F40"/>
</linearGradient>
<linearGradient id="paint38_linear_440_411" x1="1181.52" y1="-413.046" x2="1210.6" y2="353.469" gradientUnits="userSpaceOnUse">
<stop stop-color="#BE965D"/>
<stop offset="0.2784" stop-color="#976F40"/>
<stop offset="0.4259" stop-color="#C99B61"/>
<stop offset="0.5584" stop-color="#F0BE7B"/>
<stop offset="0.6275" stop-color="#FFCB85"/>
<stop offset="0.7085" stop-color="#EEBC79"/>
<stop offset="0.8693" stop-color="#C0935B"/>
<stop offset="1" stop-color="#976F40"/>
</linearGradient>
<linearGradient id="paint39_linear_440_411" x1="1046.52" y1="-407.19" x2="1075.6" y2="359.325" gradientUnits="userSpaceOnUse">
<stop stop-color="#BE965D"/>
<stop offset="0.2784" stop-color="#976F40"/>
<stop offset="0.4259" stop-color="#C99B61"/>
<stop offset="0.5584" stop-color="#F0BE7B"/>
<stop offset="0.6275" stop-color="#FFCB85"/>
<stop offset="0.7085" stop-color="#EEBC79"/>
<stop offset="0.8693" stop-color="#C0935B"/>
<stop offset="1" stop-color="#976F40"/>
</linearGradient>
<linearGradient id="paint40_linear_440_411" x1="1068.98" y1="-408.166" x2="1098.06" y2="358.349" gradientUnits="userSpaceOnUse">
<stop stop-color="#BE965D"/>
<stop offset="0.2784" stop-color="#976F40"/>
<stop offset="0.4259" stop-color="#C99B61"/>
<stop offset="0.5584" stop-color="#F0BE7B"/>
<stop offset="0.6275" stop-color="#FFCB85"/>
<stop offset="0.7085" stop-color="#EEBC79"/>
<stop offset="0.8693" stop-color="#C0935B"/>
<stop offset="1" stop-color="#976F40"/>
</linearGradient>
<linearGradient id="paint41_linear_440_411" x1="1091.44" y1="-409.142" x2="1120.51" y2="357.374" gradientUnits="userSpaceOnUse">
<stop stop-color="#BE965D"/>
<stop offset="0.2784" stop-color="#976F40"/>
<stop offset="0.4259" stop-color="#C99B61"/>
<stop offset="0.5584" stop-color="#F0BE7B"/>
<stop offset="0.6275" stop-color="#FFCB85"/>
<stop offset="0.7085" stop-color="#EEBC79"/>
<stop offset="0.8693" stop-color="#C0935B"/>
<stop offset="1" stop-color="#976F40"/>
</linearGradient>
<linearGradient id="paint42_linear_440_411" x1="1113.89" y1="-410.115" x2="1142.97" y2="356.4" gradientUnits="userSpaceOnUse">
<stop stop-color="#BE965D"/>
<stop offset="0.2784" stop-color="#976F40"/>
<stop offset="0.4259" stop-color="#C99B61"/>
<stop offset="0.5584" stop-color="#F0BE7B"/>
<stop offset="0.6275" stop-color="#FFCB85"/>
<stop offset="0.7085" stop-color="#EEBC79"/>
<stop offset="0.8693" stop-color="#C0935B"/>
<stop offset="1" stop-color="#976F40"/>
</linearGradient>
<linearGradient id="paint43_linear_440_411" x1="1136.35" y1="-411.092" x2="1165.42" y2="355.424" gradientUnits="userSpaceOnUse">
<stop stop-color="#BE965D"/>
<stop offset="0.2784" stop-color="#976F40"/>
<stop offset="0.4259" stop-color="#C99B61"/>
<stop offset="0.5584" stop-color="#F0BE7B"/>
<stop offset="0.6275" stop-color="#FFCB85"/>
<stop offset="0.7085" stop-color="#EEBC79"/>
<stop offset="0.8693" stop-color="#C0935B"/>
<stop offset="1" stop-color="#976F40"/>
</linearGradient>
<linearGradient id="paint44_linear_440_411" x1="1158.81" y1="-412.066" x2="1187.88" y2="354.449" gradientUnits="userSpaceOnUse">
<stop stop-color="#BE965D"/>
<stop offset="0.2784" stop-color="#976F40"/>
<stop offset="0.4259" stop-color="#C99B61"/>
<stop offset="0.5584" stop-color="#F0BE7B"/>
<stop offset="0.6275" stop-color="#FFCB85"/>
<stop offset="0.7085" stop-color="#EEBC79"/>
<stop offset="0.8693" stop-color="#C0935B"/>
<stop offset="1" stop-color="#976F40"/>
</linearGradient>
<linearGradient id="paint45_linear_440_411" x1="1046.27" y1="-407.181" x2="1075.34" y2="359.334" gradientUnits="userSpaceOnUse">
<stop stop-color="#BE965D"/>
<stop offset="0.2784" stop-color="#976F40"/>
<stop offset="0.4259" stop-color="#C99B61"/>
<stop offset="0.5584" stop-color="#F0BE7B"/>
<stop offset="0.6275" stop-color="#FFCB85"/>
<stop offset="0.7085" stop-color="#EEBC79"/>
<stop offset="0.8693" stop-color="#C0935B"/>
<stop offset="1" stop-color="#976F40"/>
</linearGradient>
<linearGradient id="paint46_linear_440_411" x1="1068.72" y1="-408.158" x2="1097.8" y2="358.357" gradientUnits="userSpaceOnUse">
<stop stop-color="#BE965D"/>
<stop offset="0.2784" stop-color="#976F40"/>
<stop offset="0.4259" stop-color="#C99B61"/>
<stop offset="0.5584" stop-color="#F0BE7B"/>
<stop offset="0.6275" stop-color="#FFCB85"/>
<stop offset="0.7085" stop-color="#EEBC79"/>
<stop offset="0.8693" stop-color="#C0935B"/>
<stop offset="1" stop-color="#976F40"/>
</linearGradient>
<linearGradient id="paint47_linear_440_411" x1="1091.18" y1="-409.134" x2="1120.26" y2="357.381" gradientUnits="userSpaceOnUse">
<stop stop-color="#BE965D"/>
<stop offset="0.2784" stop-color="#976F40"/>
<stop offset="0.4259" stop-color="#C99B61"/>
<stop offset="0.5584" stop-color="#F0BE7B"/>
<stop offset="0.6275" stop-color="#FFCB85"/>
<stop offset="0.7085" stop-color="#EEBC79"/>
<stop offset="0.8693" stop-color="#C0935B"/>
<stop offset="1" stop-color="#976F40"/>
</linearGradient>
<linearGradient id="paint48_linear_440_411" x1="1113.64" y1="-410.107" x2="1142.71" y2="356.408" gradientUnits="userSpaceOnUse">
<stop stop-color="#BE965D"/>
<stop offset="0.2784" stop-color="#976F40"/>
<stop offset="0.4259" stop-color="#C99B61"/>
<stop offset="0.5584" stop-color="#F0BE7B"/>
<stop offset="0.6275" stop-color="#FFCB85"/>
<stop offset="0.7085" stop-color="#EEBC79"/>
<stop offset="0.8693" stop-color="#C0935B"/>
<stop offset="1" stop-color="#976F40"/>
</linearGradient>
<linearGradient id="paint49_linear_440_411" x1="1136.09" y1="-411.082" x2="1165.17" y2="355.433" gradientUnits="userSpaceOnUse">
<stop stop-color="#BE965D"/>
<stop offset="0.2784" stop-color="#976F40"/>
<stop offset="0.4259" stop-color="#C99B61"/>
<stop offset="0.5584" stop-color="#F0BE7B"/>
<stop offset="0.6275" stop-color="#FFCB85"/>
<stop offset="0.7085" stop-color="#EEBC79"/>
<stop offset="0.8693" stop-color="#C0935B"/>
<stop offset="1" stop-color="#976F40"/>
</linearGradient>
<linearGradient id="paint50_linear_440_411" x1="1115.69" y1="-410.16" x2="1144.76" y2="356.353" gradientUnits="userSpaceOnUse">
<stop stop-color="#BE965D"/>
<stop offset="0.2784" stop-color="#976F40"/>
<stop offset="0.4259" stop-color="#C99B61"/>
<stop offset="0.5584" stop-color="#F0BE7B"/>
<stop offset="0.6275" stop-color="#FFCB85"/>
<stop offset="0.7085" stop-color="#EEBC79"/>
<stop offset="0.8693" stop-color="#C0935B"/>
<stop offset="1" stop-color="#976F40"/>
</linearGradient>
<linearGradient id="paint51_linear_440_411" x1="1092.98" y1="-409.178" x2="1122.05" y2="357.336" gradientUnits="userSpaceOnUse">
<stop stop-color="#BE965D"/>
<stop offset="0.2784" stop-color="#976F40"/>
<stop offset="0.4259" stop-color="#C99B61"/>
<stop offset="0.5584" stop-color="#F0BE7B"/>
<stop offset="0.6275" stop-color="#FFCB85"/>
<stop offset="0.7085" stop-color="#EEBC79"/>
<stop offset="0.8693" stop-color="#C0935B"/>
<stop offset="1" stop-color="#976F40"/>
</linearGradient>
<linearGradient id="paint52_linear_440_411" x1="1070.26" y1="-408.197" x2="1099.34" y2="358.316" gradientUnits="userSpaceOnUse">
<stop stop-color="#BE965D"/>
<stop offset="0.2784" stop-color="#976F40"/>
<stop offset="0.4259" stop-color="#C99B61"/>
<stop offset="0.5584" stop-color="#F0BE7B"/>
<stop offset="0.6275" stop-color="#FFCB85"/>
<stop offset="0.7085" stop-color="#EEBC79"/>
<stop offset="0.8693" stop-color="#C0935B"/>
<stop offset="1" stop-color="#976F40"/>
</linearGradient>
<linearGradient id="paint53_linear_440_411" x1="1092.72" y1="-409.171" x2="1121.79" y2="357.342" gradientUnits="userSpaceOnUse">
<stop stop-color="#BE965D"/>
<stop offset="0.2784" stop-color="#976F40"/>
<stop offset="0.4259" stop-color="#C99B61"/>
<stop offset="0.5584" stop-color="#F0BE7B"/>
<stop offset="0.6275" stop-color="#FFCB85"/>
<stop offset="0.7085" stop-color="#EEBC79"/>
<stop offset="0.8693" stop-color="#C0935B"/>
<stop offset="1" stop-color="#976F40"/>
</linearGradient>
<linearGradient id="paint54_linear_440_411" x1="1047.55" y1="-407.216" x2="1076.63" y2="359.297" gradientUnits="userSpaceOnUse">
<stop stop-color="#BE965D"/>
<stop offset="0.2784" stop-color="#976F40"/>
<stop offset="0.4259" stop-color="#C99B61"/>
<stop offset="0.5584" stop-color="#F0BE7B"/>
<stop offset="0.6275" stop-color="#FFCB85"/>
<stop offset="0.7085" stop-color="#EEBC79"/>
<stop offset="0.8693" stop-color="#C0935B"/>
<stop offset="1" stop-color="#976F40"/>
</linearGradient>
<linearGradient id="paint55_linear_440_411" x1="1070" y1="-408.19" x2="1099.08" y2="358.324" gradientUnits="userSpaceOnUse">
<stop stop-color="#BE965D"/>
<stop offset="0.2784" stop-color="#976F40"/>
<stop offset="0.4259" stop-color="#C99B61"/>
<stop offset="0.5584" stop-color="#F0BE7B"/>
<stop offset="0.6275" stop-color="#FFCB85"/>
<stop offset="0.7085" stop-color="#EEBC79"/>
<stop offset="0.8693" stop-color="#C0935B"/>
<stop offset="1" stop-color="#976F40"/>
</linearGradient>
<linearGradient id="paint56_linear_440_411" x1="1024.84" y1="-406.236" x2="1053.91" y2="360.277" gradientUnits="userSpaceOnUse">
<stop stop-color="#BE965D"/>
<stop offset="0.2784" stop-color="#976F40"/>
<stop offset="0.4259" stop-color="#C99B61"/>
<stop offset="0.5584" stop-color="#F0BE7B"/>
<stop offset="0.6275" stop-color="#FFCB85"/>
<stop offset="0.7085" stop-color="#EEBC79"/>
<stop offset="0.8693" stop-color="#C0935B"/>
<stop offset="1" stop-color="#976F40"/>
</linearGradient>
<linearGradient id="paint57_linear_440_411" x1="1047.29" y1="-407.209" x2="1076.37" y2="359.304" gradientUnits="userSpaceOnUse">
<stop stop-color="#BE965D"/>
<stop offset="0.2784" stop-color="#976F40"/>
<stop offset="0.4259" stop-color="#C99B61"/>
<stop offset="0.5584" stop-color="#F0BE7B"/>
<stop offset="0.6275" stop-color="#FFCB85"/>
<stop offset="0.7085" stop-color="#EEBC79"/>
<stop offset="0.8693" stop-color="#C0935B"/>
<stop offset="1" stop-color="#976F40"/>
</linearGradient>
<linearGradient id="paint58_linear_440_411" x1="1069.75" y1="-408.184" x2="1098.83" y2="358.329" gradientUnits="userSpaceOnUse">
<stop stop-color="#BE965D"/>
<stop offset="0.2784" stop-color="#976F40"/>
<stop offset="0.4259" stop-color="#C99B61"/>
<stop offset="0.5584" stop-color="#F0BE7B"/>
<stop offset="0.6275" stop-color="#FFCB85"/>
<stop offset="0.7085" stop-color="#EEBC79"/>
<stop offset="0.8693" stop-color="#C0935B"/>
<stop offset="1" stop-color="#976F40"/>
</linearGradient>
<linearGradient id="paint59_linear_440_411" x1="1002.12" y1="-405.253" x2="1031.2" y2="361.261" gradientUnits="userSpaceOnUse">
<stop stop-color="#BE965D"/>
<stop offset="0.2784" stop-color="#976F40"/>
<stop offset="0.4259" stop-color="#C99B61"/>
<stop offset="0.5584" stop-color="#F0BE7B"/>
<stop offset="0.6275" stop-color="#FFCB85"/>
<stop offset="0.7085" stop-color="#EEBC79"/>
<stop offset="0.8693" stop-color="#C0935B"/>
<stop offset="1" stop-color="#976F40"/>
</linearGradient>
<linearGradient id="paint60_linear_440_411" x1="1024.58" y1="-406.228" x2="1053.66" y2="360.286" gradientUnits="userSpaceOnUse">
<stop stop-color="#BE965D"/>
<stop offset="0.2784" stop-color="#976F40"/>
<stop offset="0.4259" stop-color="#C99B61"/>
<stop offset="0.5584" stop-color="#F0BE7B"/>
<stop offset="0.6275" stop-color="#FFCB85"/>
<stop offset="0.7085" stop-color="#EEBC79"/>
<stop offset="0.8693" stop-color="#C0935B"/>
<stop offset="1" stop-color="#976F40"/>
</linearGradient>
<linearGradient id="paint61_linear_440_411" x1="1047.04" y1="-407.202" x2="1076.11" y2="359.312" gradientUnits="userSpaceOnUse">
<stop stop-color="#BE965D"/>
<stop offset="0.2784" stop-color="#976F40"/>
<stop offset="0.4259" stop-color="#C99B61"/>
<stop offset="0.5584" stop-color="#F0BE7B"/>
<stop offset="0.6275" stop-color="#FFCB85"/>
<stop offset="0.7085" stop-color="#EEBC79"/>
<stop offset="0.8693" stop-color="#C0935B"/>
<stop offset="1" stop-color="#976F40"/>
</linearGradient>
<linearGradient id="paint62_linear_440_411" x1="979.412" y1="-404.271" x2="1008.49" y2="362.244" gradientUnits="userSpaceOnUse">
<stop stop-color="#BE965D"/>
<stop offset="0.2784" stop-color="#976F40"/>
<stop offset="0.4259" stop-color="#C99B61"/>
<stop offset="0.5584" stop-color="#F0BE7B"/>
<stop offset="0.6275" stop-color="#FFCB85"/>
<stop offset="0.7085" stop-color="#EEBC79"/>
<stop offset="0.8693" stop-color="#C0935B"/>
<stop offset="1" stop-color="#976F40"/>
</linearGradient>
<linearGradient id="paint63_linear_440_411" x1="1001.87" y1="-405.248" x2="1030.94" y2="361.267" gradientUnits="userSpaceOnUse">
<stop stop-color="#BE965D"/>
<stop offset="0.2784" stop-color="#976F40"/>
<stop offset="0.4259" stop-color="#C99B61"/>
<stop offset="0.5584" stop-color="#F0BE7B"/>
<stop offset="0.6275" stop-color="#FFCB85"/>
<stop offset="0.7085" stop-color="#EEBC79"/>
<stop offset="0.8693" stop-color="#C0935B"/>
<stop offset="1" stop-color="#976F40"/>
</linearGradient>
<linearGradient id="paint64_linear_440_411" x1="1024.32" y1="-406.221" x2="1053.4" y2="360.294" gradientUnits="userSpaceOnUse">
<stop stop-color="#BE965D"/>
<stop offset="0.2784" stop-color="#976F40"/>
<stop offset="0.4259" stop-color="#C99B61"/>
<stop offset="0.5584" stop-color="#F0BE7B"/>
<stop offset="0.6275" stop-color="#FFCB85"/>
<stop offset="0.7085" stop-color="#EEBC79"/>
<stop offset="0.8693" stop-color="#C0935B"/>
<stop offset="1" stop-color="#976F40"/>
</linearGradient>
<linearGradient id="paint65_linear_440_411" x1="1046.78" y1="-407.196" x2="1075.86" y2="359.318" gradientUnits="userSpaceOnUse">
<stop stop-color="#BE965D"/>
<stop offset="0.2784" stop-color="#976F40"/>
<stop offset="0.4259" stop-color="#C99B61"/>
<stop offset="0.5584" stop-color="#F0BE7B"/>
<stop offset="0.6275" stop-color="#FFCB85"/>
<stop offset="0.7085" stop-color="#EEBC79"/>
<stop offset="0.8693" stop-color="#C0935B"/>
<stop offset="1" stop-color="#976F40"/>
</linearGradient>
<linearGradient id="paint66_linear_440_411" x1="956.697" y1="-403.291" x2="985.773" y2="363.224" gradientUnits="userSpaceOnUse">
<stop stop-color="#BE965D"/>
<stop offset="0.2784" stop-color="#976F40"/>
<stop offset="0.4259" stop-color="#C99B61"/>
<stop offset="0.5584" stop-color="#F0BE7B"/>
<stop offset="0.6275" stop-color="#FFCB85"/>
<stop offset="0.7085" stop-color="#EEBC79"/>
<stop offset="0.8693" stop-color="#C0935B"/>
<stop offset="1" stop-color="#976F40"/>
</linearGradient>
<linearGradient id="paint67_linear_440_411" x1="979.155" y1="-404.266" x2="1008.23" y2="362.249" gradientUnits="userSpaceOnUse">
<stop stop-color="#BE965D"/>
<stop offset="0.2784" stop-color="#976F40"/>
<stop offset="0.4259" stop-color="#C99B61"/>
<stop offset="0.5584" stop-color="#F0BE7B"/>
<stop offset="0.6275" stop-color="#FFCB85"/>
<stop offset="0.7085" stop-color="#EEBC79"/>
<stop offset="0.8693" stop-color="#C0935B"/>
<stop offset="1" stop-color="#976F40"/>
</linearGradient>
<linearGradient id="paint68_linear_440_411" x1="1001.61" y1="-405.241" x2="1030.69" y2="361.274" gradientUnits="userSpaceOnUse">
<stop stop-color="#BE965D"/>
<stop offset="0.2784" stop-color="#976F40"/>
<stop offset="0.4259" stop-color="#C99B61"/>
<stop offset="0.5584" stop-color="#F0BE7B"/>
<stop offset="0.6275" stop-color="#FFCB85"/>
<stop offset="0.7085" stop-color="#EEBC79"/>
<stop offset="0.8693" stop-color="#C0935B"/>
<stop offset="1" stop-color="#976F40"/>
</linearGradient>
<linearGradient id="paint69_linear_440_411" x1="1024.07" y1="-406.215" x2="1053.15" y2="360.3" gradientUnits="userSpaceOnUse">
<stop stop-color="#BE965D"/>
<stop offset="0.2784" stop-color="#976F40"/>
<stop offset="0.4259" stop-color="#C99B61"/>
<stop offset="0.5584" stop-color="#F0BE7B"/>
<stop offset="0.6275" stop-color="#FFCB85"/>
<stop offset="0.7085" stop-color="#EEBC79"/>
<stop offset="0.8693" stop-color="#C0935B"/>
<stop offset="1" stop-color="#976F40"/>
</linearGradient>
<linearGradient id="paint70_linear_440_411" x1="933.983" y1="-402.31" x2="963.06" y2="364.205" gradientUnits="userSpaceOnUse">
<stop stop-color="#BE965D"/>
<stop offset="0.2784" stop-color="#976F40"/>
<stop offset="0.4259" stop-color="#C99B61"/>
<stop offset="0.5584" stop-color="#F0BE7B"/>
<stop offset="0.6275" stop-color="#FFCB85"/>
<stop offset="0.7085" stop-color="#EEBC79"/>
<stop offset="0.8693" stop-color="#C0935B"/>
<stop offset="1" stop-color="#976F40"/>
</linearGradient>
<linearGradient id="paint71_linear_440_411" x1="956.442" y1="-403.283" x2="985.518" y2="363.232" gradientUnits="userSpaceOnUse">
<stop stop-color="#BE965D"/>
<stop offset="0.2784" stop-color="#976F40"/>
<stop offset="0.4259" stop-color="#C99B61"/>
<stop offset="0.5584" stop-color="#F0BE7B"/>
<stop offset="0.6275" stop-color="#FFCB85"/>
<stop offset="0.7085" stop-color="#EEBC79"/>
<stop offset="0.8693" stop-color="#C0935B"/>
<stop offset="1" stop-color="#976F40"/>
</linearGradient>
<linearGradient id="paint72_linear_440_411" x1="978.895" y1="-404.26" x2="1007.97" y2="362.255" gradientUnits="userSpaceOnUse">
<stop stop-color="#BE965D"/>
<stop offset="0.2784" stop-color="#976F40"/>
<stop offset="0.4259" stop-color="#C99B61"/>
<stop offset="0.5584" stop-color="#F0BE7B"/>
<stop offset="0.6275" stop-color="#FFCB85"/>
<stop offset="0.7085" stop-color="#EEBC79"/>
<stop offset="0.8693" stop-color="#C0935B"/>
<stop offset="1" stop-color="#976F40"/>
</linearGradient>
<linearGradient id="paint73_linear_440_411" x1="1001.35" y1="-405.233" x2="1030.43" y2="361.282" gradientUnits="userSpaceOnUse">
<stop stop-color="#BE965D"/>
<stop offset="0.2784" stop-color="#976F40"/>
<stop offset="0.4259" stop-color="#C99B61"/>
<stop offset="0.5584" stop-color="#F0BE7B"/>
<stop offset="0.6275" stop-color="#FFCB85"/>
<stop offset="0.7085" stop-color="#EEBC79"/>
<stop offset="0.8693" stop-color="#C0935B"/>
<stop offset="1" stop-color="#976F40"/>
</linearGradient>
<linearGradient id="paint74_linear_440_411" x1="1023.81" y1="-406.209" x2="1052.89" y2="360.306" gradientUnits="userSpaceOnUse">
<stop stop-color="#BE965D"/>
<stop offset="0.2784" stop-color="#976F40"/>
<stop offset="0.4259" stop-color="#C99B61"/>
<stop offset="0.5584" stop-color="#F0BE7B"/>
<stop offset="0.6275" stop-color="#FFCB85"/>
<stop offset="0.7085" stop-color="#EEBC79"/>
<stop offset="0.8693" stop-color="#C0935B"/>
<stop offset="1" stop-color="#976F40"/>
</linearGradient>
</defs>
</svg>
