<svg width="18" height="10" viewBox="0 0 18 10" fill="none" xmlns="http://www.w3.org/2000/svg">
<path d="M16.9553 0.616258C16.7209 0.381919 16.403 0.250275 16.0716 0.250275C15.7401 0.250275 15.4222 0.381919 15.1878 0.616258L9.00031 6.80376L2.81281 0.616258C2.57705 0.38856 2.2613 0.262567 1.93355 0.265415C1.60581 0.268263 1.29229 0.399724 1.06053 0.631485C0.828771 0.863245 0.697312 1.17676 0.694464 1.50451C0.691616 1.83225 0.817609 2.148 1.04531 2.38376L8.11656 9.45501C8.35097 9.68935 8.66885 9.82099 9.00031 9.82099C9.33176 9.82099 9.64965 9.68935 9.88406 9.45501L16.9553 2.38376C17.1896 2.14935 17.3213 1.83146 17.3213 1.50001C17.3213 1.16855 17.1896 0.850668 16.9553 0.616258V0.616258Z" fill="black"/>
</svg>
