<svg width= "18" height= "10" version="1.1" id="Layer_1" xmlns="http://www.w3.org/2000/svg" xmlns:xlink="http://www.w3.org/1999/xlink" x="0px" y="0px"
	 viewBox="0 0 18 10" style="enable-background:new 0 0 18 10;" xml:space="preserve">
<path d="M17,0.6c-0.2-0.2-0.6-0.4-0.9-0.4c-0.3,0-0.6,0.1-0.9,0.4L9,6.8L2.8,0.6C2.6,0.4,2.3,0.3,1.9,0.3c-0.3,0-0.6,0.1-0.9,0.4
	C0.8,0.9,0.7,1.2,0.7,1.5c0,0.3,0.1,0.6,0.4,0.9l7.1,7.1C8.4,9.7,8.7,9.8,9,9.8c0.3,0,0.6-0.1,0.9-0.4L17,2.4
	c0.2-0.2,0.4-0.6,0.4-0.9C17.3,1.2,17.2,0.9,17,0.6L17,0.6z"/>
</svg>