<svg width="236" height="236" viewBox="0 0 236 236" fill="none" xmlns="http://www.w3.org/2000/svg">
<g clip-path="url(#clip0_116_381)">
<path d="M196.667 177C199.173 177.003 201.584 177.962 203.406 179.683C205.229 181.404 206.325 183.755 206.472 186.257C206.619 188.759 205.805 191.223 204.196 193.145C202.588 195.067 200.306 196.302 197.817 196.598L196.667 196.667H39.3333C36.827 196.664 34.4163 195.704 32.5939 193.984C30.7714 192.263 29.6747 189.912 29.5278 187.41C29.3809 184.908 30.195 182.444 31.8036 180.522C33.4122 178.6 35.6941 177.365 38.1828 177.069L39.3333 177H196.667ZM196.667 108.167C199.275 108.167 201.776 109.203 203.62 111.047C205.464 112.891 206.5 115.392 206.5 118C206.5 120.608 205.464 123.109 203.62 124.953C201.776 126.797 199.275 127.833 196.667 127.833H39.3333C36.7254 127.833 34.2242 126.797 32.3801 124.953C30.536 123.109 29.5 120.608 29.5 118C29.5 115.392 30.536 112.891 32.3801 111.047C34.2242 109.203 36.7254 108.167 39.3333 108.167H196.667ZM196.667 39.3333C199.275 39.3333 201.776 40.3693 203.62 42.2134C205.464 44.0576 206.5 46.5587 206.5 49.1667C206.5 51.7746 205.464 54.2758 203.62 56.1199C201.776 57.964 199.275 59 196.667 59H39.3333C36.7254 59 34.2242 57.964 32.3801 56.1199C30.536 54.2758 29.5 51.7746 29.5 49.1667C29.5 46.5587 30.536 44.0576 32.3801 42.2134C34.2242 40.3693 36.7254 39.3333 39.3333 39.3333H196.667Z" fill="black"/>
</g>
<defs>
<clipPath id="clip0_116_381">
<rect width="236" height="236" fill="white"/>
</clipPath>
</defs>
</svg>
